<?xml version="1.0" encoding="utf-8"?>
<!-- Generator: Adobe Illustrator 16.0.0, SVG Export Plug-In . SVG Version: 6.00 Build 0)  -->
<!DOCTYPE svg PUBLIC "-//W3C//DTD SVG 1.1//EN" "http://www.w3.org/Graphics/SVG/1.1/DTD/svg11.dtd">
<svg version="1.1" id="Layer_1" xmlns="http://www.w3.org/2000/svg" xmlns:xlink="http://www.w3.org/1999/xlink" x="0px" y="0px"
	 width="546.334px" height="206.109px" viewBox="0 0 546.334 206.109" enable-background="new 0 0 546.334 206.109"
	 xml:space="preserve">
<g>
	<path fill-rule="evenodd" clip-rule="evenodd" d="M337.769,157.386c0.174-0.103,0.611-0.196,0.529-0.217
		c-1.935-0.489-1.784-1.481-0.771-2.773c0.08-0.104-0.265-0.413-0.009-0.668c1.021,0.366,1.768,1.125,2.688,1.825
		c-0.267-1.115-0.679-2.163-0.806-3.277c-0.129-1.134-0.341-2.259-0.521-3.407c0.971,0.027,0.431,1.174,1.378,1.352
		c-0.037-2.285-2.106-4.19-1.215-6.549c0.838-0.134,0.257,1.051,1.183,1.031c-0.716-2.231-1.259-4.463-1.293-6.774
		c0.712,0.065,0.452,0.826,1.136,1.317c-0.06-1.659,0.18-3.108,0.497-4.569c0.012,1.252,1.635,2.215,0.587,3.655
		c1.284,0.853-0.293,2.618,1.131,3.47c0.683,0.407-0.105,0.799-0.186,1.198c-0.117,0.582-0.16,0.568,0.614,0.74
		c0.559,0.124,0.371,0.591,0.311,0.886c-0.254,1.246-0.457,2.523-0.904,3.703c-0.279,0.738-0.324,1.408-0.263,2.145
		c0.127,0.015,0.252,0.068,0.338,0.031c0.679-0.287,0.761-1.863,1.644-1.226c0.747,0.539-0.406,1.326-0.632,2.032
		c-0.18,0.566-0.349,1.136-0.512,1.669c0.259,0.322,0.51,0.03,0.692,0.08c0.523,0.143,0.853-1.037,1.358-0.244
		c0.404,0.634-0.44,0.709-0.653,1.069c-0.289,0.485-0.396,1.085-0.548,1.645c-0.185,0.677,0.072,0.938,0.729,0.643
		c0.382-0.172,0.723-0.436,1.306-0.797c-0.435,1.75-1.275,3.049-2.064,4.494c1.032-0.219,2.011-0.426,3.046-0.646
		c-0.203,1.123-0.56,2.007-1.636,2.445c-0.272,0.11-0.999-0.006-0.55,0.759c0.328,0.557,0.599,0.217,0.866,0.04
		c1.036-0.686,1.698-0.125,2.041,0.754c0.425,1.086-0.638,1.085-1.391,1.435c1.131,0.743,2.746,1.464,0.396,2.604
		c-0.178,0.086,0.037,0.766,0.327,0.657c1.16-0.435,1.431,0.204,1.817,1.098c0.174,0.401,1.119,0.456,1.513,0.152
		c0.361-0.28,0.1-0.901-0.229-1.282c-0.361-0.419-0.772-0.795-1.144-1.206c-0.246-0.272-0.59-0.816-0.28-0.937
		c1.655-0.638-0.724-0.937,0.004-1.489c0.84-0.656,1.678,0.688,2.747,0.077c-1.513-0.521-1.75-2.039-2.828-3.026
		c1.057-0.581,1.836,0.796,2.76,0.002c-0.405-0.678-0.851-1.421-1.368-2.286c2.323-0.007,1.44-1.738,1.347-2.746
		c-0.107-1.164-1.83-1.519-2.177-3.139c1.822,1.088,1.729,0.801,1.751-0.998c0.021-1.655,0.234-3.597,0.778-5.031
		c-0.097,1.237,1.248,2.408,1.035,3.92c-0.308,2.187,2.11,2.903,2.549,4.712c0.103,0.421,0.401,1.157,1.194,0.673
		c0.831-0.508,0.168-0.84-0.131-1.23c-0.219-0.286-0.444-0.578-0.591-0.901c-0.124-0.272-0.232-0.609-0.185-0.891
		c0.168-0.985,0.218-1.963,0.041-2.558c1.012-0.624,1.963,0.673,3.024,0.069c-1.325-1.408-2.352-3.149-4.585-3.45
		c0.464-1.618,1.941-2.396,2.639-3.825c1.604-3.288,2.238-6.406,1.058-10.013c-0.294-0.9-0.274-2.475,0.028-3.608
		c0.583-2.181,0.176-4.394,0.472-6.61c0.491,0.276,0.207,0.723,0.366,0.986c0.442,0.728-1.007,2.253,1.006,2.394
		c0.13,0.01,0.013,1.246-0.242,1.903c-0.388,1.001-0.166,1.886,0.174,2.958c0.495,1.563,0.81-0.15,1.11,0.122
		c0.629,1.343-0.818,1.895-1.123,2.868c0.577,0.45,1.209,0.162,1.916,0.195c-0.755,1.48-0.575,3.164-1.445,4.707
		c1.387,0.183,2.115-0.605,2.938-1.35c-0.278,1.104-0.445,2.308-1.745,2.769c-0.54,0.192-0.682,0.604-0.655,0.97
		c0.029,0.398,0.56,0.379,0.89,0.429c0.484,0.072,0.983,0.065,1.477,0.063c1.003-0.006,1.504-0.366,1.02-1.447
		c-0.621-1.389-0.757-2.844-0.495-4.493c0.308,0.446,0.556,0.807,0.864,1.254c0.282-0.429,0.53-0.806,0.773-1.175
		c0.567,0.911,0.297,2.098,1.322,3.092c-0.229-3.925-1.572-7.478-1.101-11.189c0.643-0.173,0.45,1.15,1.147,0.689
		c0.541-0.356,0.047-0.884-0.014-1.343c-0.079-0.607-0.076-1.227-0.108-1.834c0.827-0.265,0.771,0.768,1.408,0.774
		c0.146-1.067,0.939-2.122-0.035-3.256c-0.361-0.42,0.303-0.543,0.466-0.821c0.836-1.426,1.361-2.913,1.197-4.624
		c-0.06-0.631,0.229-1.295,0.585-1.921c0,0.988,0.092,1.987-0.022,2.962c-0.159,1.368,0.103,1.991,1.583,1.044
		c-0.016,1.255,0.268,2.377-0.559,3.348c-0.26,0.306-0.932,0.583-0.349,1.153c0.49,0.48,0.551-0.488,1.014-0.331
		c0.176,0.06,0.445-0.152,0.798-0.291c-0.12,2.018-1.351,3.587-1.757,5.454c0.904,0.306,1.675-0.176,2.551-0.408
		c0.072,1.551-1.226,2.722-1.28,4.289c3.921-2.847,5.607-8.11,4.007-12.561c-0.521-1.446-0.22-3.034,0.04-4.266
		c0.468-2.216,0.036-4.423,0.772-6.597c0,0.604-0.136,1.25,0.039,1.798c0.164,0.515-0.793,1.836,0.924,1.517
		c0.16-0.03,0.226,1.048,0.003,1.486c-0.732,1.442-0.771,2.771,0.603,4.362c0.221-0.499,0.44-0.995,0.659-1.491
		c0.138,0.114,0.275,0.229,0.413,0.344c-0.696,0.709-0.079,2.064-1.428,2.492c-0.166,0.052-0.192,0.545-0.283,0.834
		c0.603,0.067,1.205,0.134,1.972,0.22c-0.979,1.406-0.306,3.214-1.645,4.623c2.588-0.21,3.816-1.606,4.064-4.264
		c0.539,0.933,1.47,1.034,2.382,0.931c1.222-0.139,2.29-1.94,3.124-5.1c-0.939-0.06-1.374,1.507-2.541,0.728
		c-0.382-0.255-0.848-0.282-0.909-0.844c-0.067-0.621-0.142-1.341,0.583-1.565c1.322-0.411,2.341-1.018,2.47-2.555
		c0.012-0.138,0.217-0.338,0.365-0.373c1.589-0.386,2.08-1.775,2.865-3.102c-1.2-0.032-2.249,0.075-3.199,0.874
		c-0.128-3.173-2.452-4.691-4.905-6.388c1.869-0.063,3.574,0.603,5.027-0.659c0.284-0.247,0.639,0.201,0.937,0.4
		c0.346,0.231,0.697,0.57,1.132,0.112c0.34-0.357,0.366-0.695,0.168-1.165c-0.404-0.965-1.132-1.674-1.971-2.139
		c-1.062-0.588-1.534-1.26-1.01-2.4c0.421-0.916-1.15-1.774-0.413-2.237c0.837-0.525,1.239,0.804,1.828,1.33
		c0.232-0.287,0.732-0.57,0.418-0.966c-1.417-1.781-0.063-4.091-1.223-5.965c-0.461-0.745,0.357-1.426,0.981-1.935
		c0.739-0.602,1.003-1.19,0.104-1.93c-0.655-0.54-0.999-1.147,0.306-1.309c1.634-0.202,1.341-1.393,0.994-2.319
		c-0.821-2.198-0.39-4.355,0.021-6.507c0.137-0.711,0.149-1.322-0.145-1.952c-0.487-1.045,0.46-1.683,0.719-2.513
		c0.104-0.33,0.519-0.169,0.609-0.025c0.417,0.668,1.23,1.116,0.954,2.167c-0.562,2.135-0.384,4.419-1.253,6.504
		c-0.063,0.149,0.019,0.358,0.034,0.545c0.729,0.054,0.99-0.538,1.411-0.915c0.36-0.323,0.919-0.767,1.299-0.384
		c0.437,0.438,0.417,1.164-0.088,1.672c-0.672,0.677-1.503,1.213-2.058,2.448c1.158-0.72,2.02-1.278,2.906-1.792
		c0.332-0.192,0.745-0.191,1.043,0.085c0.46,0.428-0.148,0.584-0.258,0.875c-0.271,0.717-0.85,1.179-1.327,1.729
		c-0.244,0.28-0.845,0.369-0.609,0.945c0.199,0.486,0.531,0.696,1.112,0.745c2.114,0.176,2.214,0.255,1.351,2.286
		c-0.607,1.428-0.301,3.042-1.281,4.43c-0.56,0.791-0.819,1.722-2.115,1.967c0.726,0.697,1.334,1.283,0.998,2.274
		c-0.136,0.4-0.817,1.018,0.096,1.348c0.789,0.286,1.497,1.163,2.483,0.293c0.668-0.589,1.378-1.123,1.995-2.118
		c0.044,2.628,0.207,4.94-0.905,7.215c-0.22,0.451,0.156,1.605-0.188,2.423c-0.021,0.049,0.019,0.121,0.02,0.182
		c0.005,1.364-2.09,1.725-1.883,2.292c0.459,1.255,0.339,1.992-0.662,2.705c-0.54,0.385-0.591,0.866-0.065,1.186
		c1.723,1.046,3.052,2.96,5.455,2.557c0.99-0.166,1.041,0.369,0.735,1.065c-0.171,0.389-0.382,0.919-0.708,1.05
		c-1.393,0.558-2.311,1.546-2.941,3.01c-0.92-2.556-1.904,0.867-2.822-0.315c2.274,2.279,2.553,2.241,7.01-0.959
		c-0.301,1.292-0.203,2.9-0.923,3.46c-0.948,0.738-1.944,1.239-2.259,2.495c-1.489-0.812-1.183,1.942-2.626,1.338
		c-0.124-0.052-0.29,0.529-0.084,0.78c0.285,0.345,0.824,0.253,0.983,0.019c0.718-1.061,2.021-0.774,2.915-1.375
		c0.906-0.608,0.732,0.366,1.023,0.704c0.884-1.55,1.822-3.024,3.382-3.922c0.227,2.127-1.272,3.692-1.838,5.569
		c-0.117,0.391-0.368,0.841-0.949,0.551c-0.325-0.162-0.699-0.165-0.737,0.209c-0.178,1.719-0.964,2.373-2.757,2.073
		c-0.533-0.089-1.567,0.384-1.2,1.592c0.074,0.244-0.24,1.675-1.206,0.488c-0.244-0.3-0.567-0.298-0.78-0.033
		c-0.113,0.141-0.082,0.46-0.02,0.67c0.37,1.24,1.437,1.521,2.376,0.586c0.445-0.441,0.872-0.848,1.886-1.153
		c-1.048,1.645-0.55,3.866-2.995,4.195c-0.319,0.043-0.646,0.242-0.393,0.613c0.411,0.601,1.223,0.47,1.461,0.119
		c0.965-1.42,2.564-1.524,3.921-2.127c0.153-0.067,0.353-0.032,0.533-0.044c-0.085,2.694-1.195,4.867-3.15,6.644
		c-0.266,0.241-0.625,0.548-0.376,0.922c0.124,0.186,0.541,0.204,0.833,0.244c1.914,0.265,3.348-0.802,5.099-2.041
		c-1.29,2.72-2.367,5.134-3.591,7.472c-0.339,0.648-0.753,2.211-1.979,0.479c-0.556-0.783-1.057-0.511-2.14,0.963
		c0.698,0.438,1.692,0.331,2.034,1.479c0.267,0.897,1.131,0.179,1.367-0.271c1.293-2.459,3.646-3.805,5.628-5.54
		c0.21,0.261,0.269-1.284,0.675-0.018c0.301,0.938,1.308,0.924,2.269,0.791c-0.046-1.478-1.481-2.434-1.352-3.903
		c0.054-0.61-2.127-1.269,0.039-1.834c-0.268-0.668-0.534-1.336-0.79-1.976c0.705,0.234,1.47,0.487,2.731,0.907
		c-1.113-1.255-2.21-2.155-0.429-3.104c0.421-0.224,0.06-0.566-0.168-0.885c-0.701-0.979-1.35-2-1.96-3.039
		c-0.16-0.271-0.393-0.731,0.053-0.979c0.267-0.148,0.608-0.038,0.783,0.277c0.451,0.814,1.565,0.193,2.116,1.003
		c-0.493-1.882-0.214-3.813-0.645-5.62c2.324-0.069,1.186-2.271,1.66-3.475c0.512-1.3,0.533-2.794,0.93-4.185
		c0.058,1.464,1.009,2.739,0.666,4.25c-0.289,1.275,0.376,1.24,1.572,0.204c-0.606,1.696,0.047,3.144-1.337,4.051
		c0.817,0.739,1.471-0.106,2.254-0.223c-0.323,1.287-0.365,2.643-1.548,3.535c-0.249,0.187-0.388,0.594-0.081,0.777
		c0.425,0.255,1.002,0.315,1.359-0.088c0.299-0.337,0.558-0.813,0.973-0.407c0.413,0.403-0.149,0.776-0.368,1.091
		c-0.988,1.421-0.908,3.326-2.167,4.63c-0.585,0.605,0.24,0.464,0.428,0.581c0.694,0.433,1.432-0.295,2.227,0.016
		c-0.809,1.075-1.097,2.292-1.303,3.604c0.905,0,1.803,0,2.974,0c-1.391,1.554-0.581,4.046-2.889,4.807
		c0.091,0.192,0.109,0.281,0.139,0.285c2.825,0.34,2.828,0.34,2.85-2.467c0.009-1.173,0.002-2.345,0.002-3.852
		c1.148,1.52,0.544,3.107,1.142,4.401c0.098,0.21-0.042,0.622,0.088,0.713c2.298,1.607,0.187,3.789,0.791,5.617
		c0.083,0.012,0.225,0.08,0.316,0.038c1.856-0.834,1.804-2.244,1.173-3.852c-0.184-0.468-0.466-1.079,0.535-0.946
		c0.452,0.06,0.896-0.008,0.91-0.617c0.012-0.472-0.15-0.803-0.692-0.912c-0.268-0.054-0.496-0.305-0.842-0.532
		c3.195-1.69-0.834-2.845-0.243-4.408c0.568,0.487,1.066,1.74,1.77,1.135c0.631-0.544-0.168-1.52-0.922-2.389
		c1.23,0.503,1.73-0.063,1.749-0.979c0.015-0.715-0.194-1.448-0.318-2.163c-0.119-0.693-1.453-1.909,0.5-2.249
		c0.083-0.015,0.165-0.726,0.057-1.049c-0.898-2.693,0.749-5.187,0.538-7.829c0.165,1.628,0.189,3.256,0.79,4.883
		c0.648-0.771,1.361-1.561,2.194-2.24c0.969-0.792,0.793-2.315-0.37-2.621c-1.42-0.373-1.104-1.086-0.613-1.866
		c0.563-0.896,0.758-2.003,1.291-2.801c0.79-1.184,1.779-2.454,3.431-2.674c0.367-0.049,0.805,0.022,0.81-0.505
		c0.005-0.469-0.646-0.449-0.667-0.485c-0.54-0.964-1.144-1.938-1.416-2.992c-0.266-1.028-0.753-1.742-1.558-2.396
		c-1.027-0.833-1.265-1.781,0.079-2.611c0.469-0.289,1.072-0.48,1.375-0.893c0.517-0.703,0.646-0.627,1.148,0.058
		c0.603,0.82,1.498,1.425,2.268,2.124c0.529,0.224,0.863,0.638,1.133,1.367c-0.068-0.949-0.545-1.213-1.172-1.318
		c-0.178-1.623-0.178-1.623-2.949-3.833c1.199-1.029,2.49-0.768,3.816-0.438c0.344,0.085,0.928,0.428,1.058-0.207
		c0.11-0.538-0.018-1.084-0.809-1.182c-2.34-0.289-2.993-2.153-3.58-4.013c-0.276-0.873-0.314-1.826-0.629-2.68
		c-0.302-0.818-0.332-1.305,0.699-1.351c0.119-0.005,0.235-0.061,0.353-0.094c-0.828-1.952,2.191-1.053,1.685-2.889
		c1.127,0.976,1.278,2.273,2.525,3.088c-0.325-2.292,0.019-4.367-1.435-6.156c-0.684-0.841-0.034-2.586-1.811-2.806
		c-0.043-0.005-0.268-0.699,0.326-0.766c0.057-0.006,0.117,0.048,0.177,0.048c0.973-0.002,2.036,0.934,2.891-0.094
		c0.528-0.634-0.272-4.495-1.107-5.122c-0.806-0.604-0.622-0.994-0.212-1.713c1.101-1.932,1.925-3.984,1.975-6.256
		c0.042-1.854,0.953-3.562,0.998-5.465c2.213,3.187,1.178,6.908,1.787,10.406c0.481-0.224,1.437-0.862,1.593-0.706
		c0.756,0.758-0.213,1.37-0.461,2.051c-0.263,0.723-0.612,1.414-1.151,2.635c1.166-0.756,1.902-1.233,2.953-1.915
		c-1.001,2.705-1.104,5.439-3.045,7.466c-0.353,0.368-0.276,0.672-0.043,0.938c0.237,0.27,0.547,0.202,0.693-0.171
		c0.132-0.335,0.361-0.538,0.698-0.359c0.331,0.175,0.156,0.534,0.173,0.823c0.116,2.065-0.479,4.021-0.925,5.999
		c-0.101,0.445-0.607,0.921,0.123,1.226c0.494,0.206,0.998,0.086,1.316-0.381c0.544-0.8,1.053-1.625,1.586-2.455
		c1.216,1.638,1.135,3.265,0.007,4.961c-0.454,0.683-1.094,1.553,0.562,1.751c0.537,0.064,0.12,0.705,0.038,1.085
		c-0.584,2.724-2.188,5.03-3.146,7.716c1.406-0.214,2.659,0.714,4.144,0.296c0.649-0.183,0.72,0.741,0.618,1.264
		c-0.256,1.311-0.52,2.645-1.283,3.774c-0.366,0.543-0.788,1.104-0.202,1.603c0.628,0.536,0.67-0.532,1.02-0.575
		c2.053-0.254,2.146-1.636,1.827-3.287c0.858,0.197,0.672,1.028,1.157,1.389c0.765-1.275-0.396-2.64,0.21-3.896
		c0.719,0.058,0.589,0.979,1.293,1.351c0.007-1.28,0.708-2.359-0.062-3.475c-0.12-0.173-0.258-0.433-0.01-0.651
		c2.338-2.065,1.38-4.907,1.827-7.416c0.445,1.049,0.471,2.173,0.363,3.332c-0.149,1.622-0.126,1.624,1.53,1.234
		c0.462,1.75-0.258,3.195-1.235,4.562c0.768,0.36,1.363-0.064,2.032-0.319c0.157,2.084-1.4,3.565-1.703,5.438
		c0.871,0.516,1.666-0.615,2.553,0.006c-0.388,1.11-0.782,2.236-1.243,3.558c1.239-0.16,2.243-0.362,3.17-1.828
		c-0.32,2.111,0.555,3.784-0.906,5.294c-0.398,0.412,0.225,1.553-0.222,2.336c-0.175,0.307-0.18,0.718-0.375,1.005
		c-1.299,1.899-1.286,1.947,0.968,2.242c-0.578,1.905-0.938,3.837-1.186,5.826c-0.21,1.677,0.257,1.863,1.61,1.478
		c0.22-0.063,0.452-0.087,0.957-0.181c-0.378,0.919-0.648,1.693-1.008,2.426c-0.58,1.181-0.355,2.238,0.477,3.156
		c0.271,0.301,0.516,0.535,0.392,0.929c-0.906,2.873,0.069,5.466,1.187,8.159c0.306-0.427,1.359-0.675,0.553-1.174
		c-1.566-0.97-1.094-2.377-1.281-3.662c0.743,1.167,1.588,2.118,3.222,2.239c-1.151-1.573-1.039-3.41-1.424-5.263
		c0.877,0.024,1.1,1.12,1.898,1.106c0.363-0.005,0.727-0.021,1.09-0.033c-0.021-0.338,0.094-0.813-0.085-0.991
		c-1.092-1.081-0.854-2.803-1.931-3.875c-0.13-0.13-0.463-0.456-0.082-0.55c2.041-0.503-0.104-1.431,0.295-2.179
		c0.626,0.208,1.281,0.425,2.396,0.794c-1.111-1.334-2.013-2.433-0.158-3.284c-0.451-0.742-0.884-1.496-1.36-2.222
		c-0.533-0.813-1.201-1.554-1.167-2.743c1.103,0.184,1.836,1.436,3.258,1.141c-0.6-1.615-0.316-3.451-0.656-5.226
		c2.276-0.178,1.311-2.26,1.559-3.446c0.293-1.401,0.897-2.727,0.906-4.203c0.093,1.456,1.104,2.709,0.72,4.201
		c-0.155,0.602-0.167,1.361,0.884,0.81c0.25-0.132,0.565-0.076,0.464,0.243c-0.351,1.095,0.269,2.547-1.224,3.242
		c0.836,0.49,1.54,0.175,2.522-0.511c-0.599,1.425-0.309,2.756-1.475,3.528c-0.426,0.283-0.642,0.65-0.288,1.038
		c0.313,0.343,0.948,0.315,1.176,0.031c0.325-0.404,0.676-0.613,1.585-0.919c-1.41,1.969-1.474,4.151-2.917,5.715
		c-0.47,0.51-0.459,0.901,0.291,0.98c0.67,0.07,1.353,0.015,2.229,0.015c-0.786,1.137-0.945,2.39-1.164,3.646
		c0.84,0,1.698,0,2.773,0c-1.08,1.627-0.705,3.888-3.089,4.854c1.094,0.517,2.044,0.417,2.885,0.321
		c1.214-0.138,0.887-1.89,0.871-2.094c-0.141-1.807,1.249-3.192,1.15-4.911c0.096-0.185,0.196-0.188,0.302-0.009
		c0.174,0.579-0.322,1.841,1.134,1.112c0.688,1.63,0.183,3.344,0.525,5.009c-0.104-1.69,0.836-3.382-0.169-5.074
		c0.603-0.243,1.284,0.808,1.643,0.168c0.415-0.741-0.15-1.509-1.024-2.31c1.609,0.423,1.916-0.43,1.792-1.474
		c-0.085-0.711-0.21-1.432-0.498-2.137c-0.204-0.497-0.706-1.365,0.483-1.709c0.597-0.173,0.327-0.913,0.225-1.304
		c-0.752-2.858,0.691-5.556,0.536-8.372c-0.048,1.858,0.589,3.624,0.663,5.508c0.423,0.151,0.892-0.979,0.885-0.402
		c-0.018,1.456,0.842,2.693,0.21,4.462c-0.537,1.505-1.582,3.813,0.166,5.687c0.743-0.28,1.313-1.012,1.957-1.716
		c-0.335,1.994-0.971,3.874-1.571,5.721c-0.467,1.433,0.132,2.299,0.817,3.131c0.691,0.84,0.504,1.125-0.365,1.376
		c-0.428,0.122-1.062-0.144-1.089,0.653c-0.009,0.272,0.05,0.507,0.311,0.599c0.565,0.198,1.052,0.128,1.422-0.428
		c0.162-0.244,0.438-0.411,0.913-0.836c-0.186,2.15-2.524,2.884-2.433,4.843c1.216,0.543,1.975-0.613,3.021-0.898
		c0.181,0.76-0.295,1.368-0.531,2.045c-0.272,0.783-0.488,1.658,0.535,2.063c0.798,0.316,0.385,0.795,0.192,1.12
		c-0.308,0.521-0.761,0.958-1.165,1.419c-0.472,0.538-1.656,0.584-1.526,1.406c0.135,0.846,1.162,0.236,1.758,0.48
		c0.641,0.262,0.781,0.587,0.584,1.256c-0.187,0.632-0.112,1.343-0.753,1.811c0.847,0.482,1.393-0.137,2.017-0.288
		c0.486-0.119,0.75-0.414,1.34,0.219c0.917,0.984,1.429-0.672,2.274-0.901c0.534-0.145,1.081-0.646,1.768-0.691
		c1.922-0.129,2.499-1.214,1.623-3.041c-0.722,0.26-0.643,0.984-0.886,1.521c-0.148,0.329-0.286,0.785-0.719,0.697
		c-0.415-0.085-0.383-0.558-0.46-0.921c-0.124-0.585,0.519-1.805-1.092-1.329c-0.14,0.041-0.699-1.427-1.891-0.776
		c-0.394,0.214-1.141-0.222-1.739-0.363c0.408-0.804,1.052-1.523-0.282-2.172c-0.677-0.329-0.2-1.083,0.058-1.616
		c0.563-1.164,1.46-2.085,2.28-3.06c0.884-1.051,0.596-2.305-0.728-2.715c-0.813-0.251-0.697-0.54-0.445-1.191
		c0.506-1.306,1.202-2.54,1.751-3.812c0.408-0.946,1.864-1.801,3.208-1.964c1.051-0.128,0.935-1.086,0.571-1.203
		c-1.705-0.549-1.249-2.273-1.994-3.319c-0.474-0.666-0.683-1.582-1.392-2.052c-1.104-0.731-1.185-1.665-0.326-2.417
		c0.924-0.809,2.061-1.846,3.406-0.613c0.521,0.477,0.886,1.124,1.423,1.826c0.488-1.654-0.445-2.266-1.581-2.81
		c-0.468-0.225-1.261-0.353-1.147-1.009c0.114-0.668,0.908-0.813,1.487-0.813c1.153,0.001,2.307,0.154,3.58,0.254
		c-0.005-0.627-0.343-0.922-0.947-1.015c-2.234-0.342-2.919-2.046-3.411-3.906c-0.235-0.891-0.442-1.789-0.659-2.685
		c-0.336-1.391-0.335-1.392,1.158-1.561c-0.281-0.516-0.561-1.03-0.826-1.519c2.083-1.134,3.796-1.261,4.566,1.693
		c0.095-2.227,0.22-4.193-1.061-6.024c-0.688-0.985-0.329-2.647-2.021-3.059c-0.146-0.036-0.39-1.136,0.627-1.022
		c0.122,0.014,0.251,0.015,0.366,0.055c0.817,0.282,2.051,0.775,2.379,0.067c0.405-0.875,0.145-2.137-0.074-3.181
		c-0.085-0.405-0.194-0.99-0.515-1.319c-1.095-1.122-0.854-2.252-0.134-3.406c1.704-2.732,1.269-5.959,2.07-8.901
		c0.141-0.517,0.019-1.108,0.577-1.712c2.334,3.227,0.68,6.917,1.658,10.208c0.477-0.026,1.041-1.083,1.604-0.479
		c0.511,0.547-0.169,1.307-0.411,1.951c-0.286,0.76-1.209,1.301-0.783,2.404c0.836-0.382,1.213-1.366,2.35-1.561
		c-0.682,2.86-1.406,5.586-3.07,7.987c0.623,0.581,1.098-0.331,1.737-0.159c0.206,2.239-0.415,4.35-0.981,6.491
		c-0.11,0.418-0.95,1.28,0.173,1.66c0.923,0.313,1.389-0.287,1.653-1.038c0.251-0.712,0.652-1.303,1.156-1.854
		c1.323,2.058,1.297,2.248,0.109,4.875c-0.227,0.502-1.617,1.432,0.389,1.661c0.61,0.069,0.227,1.118,0.056,1.608
		c-0.819,2.356-1.733,4.681-3.098,6.799c1.458,0.177,2.566,1.661,4.31,0.961c0.441-0.177,0.422,0.863,0.405,1.39
		c-0.057,1.766-1.325,3.096-1.765,4.698c0.77,0.553,1.302-0.253,1.93-0.242c0.492,0.009,1.349-1.135,1.521,0.448
		c0.068,0.625,0.736,0.214,0.997-0.064c0.529-0.565,0.977-1.208,1.466-1.828c0.527,2.047-0.318,6.411-1.837,7.643
		c-1.567,1.271-2.327,3.145-3.813,4.438c-0.281,0.245-0.612,0.728-0.34,1.165c0.332,0.533,0.775,0.108,1.138-0.025
		c1.957-0.726,4.23-0.93,5.323-3.236c-1.288,4.678-3.836,8.841-4.496,13.729c1.062-2.419,3.959-1.979,5.784-4.206
		c0,2.298-0.015,4.095,0.009,5.892c0.008,0.553-0.276,1.434,0.726,1.33c0.811-0.085,0.411-0.931,0.363-1.307
		c-0.313-2.424,1.168-4.575,1.033-6.982c0.84,1.585,0.483,3.318,0.529,4.973c0.035,1.279-0.038,2.513,1.222,3.235
		c0.791,0.453,0.484,1.04,0.032,1.185c-2.442,0.784-1.146,2.067-0.293,2.94c0.793,0.813,0.264,0.967-0.46,1.309
		c1.404,0.179,2.486,0.602,3.542,1.228c1.222,0.724,2.452,0.569,3.638-0.336c0.604-0.46,0.508-1.021,0.393-1.477
		c-0.207-0.813-0.632,0.059-0.992,0.012c-0.484-0.064-1.012-0.14-0.744-0.685c0.673-1.367-0.502-1.216-1.129-1.502
		c-0.439-0.201-1.022-0.212-1.345-0.517c-0.645-0.608-1.596-1.352-1.608-2.053c-0.015-0.882,1.225-0.229,1.845-0.547
		c0.267-0.137,0.605-0.124,0.891-0.234c0.364-0.142,1.126,0.273,0.971-0.643c-0.125-0.737-0.708-0.523-1.17-0.537
		c-0.493-0.014-1.003,0.069-1.477-0.027c-0.635-0.13-1.215-0.598-1.314-1.179c-0.11-0.645,0.364-1.112,1.054-1.394
		c0.655-0.268,1.081-0.766,0.316-1.465c-0.51-0.467-1.411-1.31-0.781-1.661c0.626-0.348,1.963-0.62,2.708,0.453
		c0.687,0.988,1.487,1.766,3.176,1.511c-2.116-1.731-3.36-3.79-4.438-6.232c0.987,0.639,1.804,1.205,2.659,1.703
		c0.37,0.216,0.833,0.302,1.198-0.08c0.382-0.399,0.198-0.767-0.068-1.155c-0.897-1.306-0.589-3.018-1.486-4.355
		c-0.425-0.633-0.022-0.986,0.739-0.959c1.34,0.049,0.956-0.727,0.466-1.259c-1.015-1.102-0.228-2.874-1.575-3.881
		c-0.319-0.239,0.253-0.592,0.639-0.423c0.501,0.22,0.968,0.524,1.437,0.813c0.361,0.223,0.711,0.348,0.808-0.211
		c0.055-0.312,0.695-0.74-0.135-0.979c-0.612-0.176-0.938-0.702-1.269-1.214c-0.473-0.734-0.152-1.314,0.536-1.377
		c2.468-0.226,1.128-0.979,0.305-1.73c-0.249-0.228-0.413-0.549-0.602-0.808c0.515-0.626,1.393,0.292,1.663-0.568
		c0.314-1.001-0.914-1.189-1.094-1.976c0.502-0.508,0.857,0.065,1.271,0.195c0.289-0.152,0.567-0.148,0.83,0.061
		c0.368,0.023,0.737,0.048,1.217,0.079c0.248,0.476-1.686,1.285,0.168,1.688c0.343,0.074-0.272,1.175-0.658,1.721
		c-0.33,0.468-0.936,0.92,0.335,0.923c0.852,0.002,0.789,0.586,0.277,1.118c-0.472,0.491-0.859,1.035-1.034,1.739
		c0.419,0.439,1.053-0.025,1.565,0.357c-0.359,0.64-1.365,0.9-1.203,1.88c0.035,0.216-0.096,0.458-0.15,0.688
		c0.476,0.034,1.373-0.501,1.092,0.616c-0.116,0.461-0.791,0.756-1.111,1.2c-0.226,0.313-0.282,0.75-0.421,1.15
		c1.436-0.144,1.466-1.891,2.747-2.245c0.991,2.079-2.655,2.952-1.308,5.197c0.853-2.018,2.428-3.608,1.738-5.935
		c1.528,0.909-1.217,3.731,2.114,3.57c-0.208,0.756-1.751,1.634,0.42,2.142c0.758,0.177-0.231,1.752-0.537,2.658
		c-0.213,0.631-1.426,1.343,0.373,1.646c0.541,0.091,0.367,0.933-0.252,1.251c-0.928,0.477-0.715,1.583-0.392,1.876
		c1.014,0.919,0.783,1.592,0.075,2.494c-0.275,0.35-0.395,0.817-0.031,1.431c0.568,0.962,0.734,2.125,0.553,3.289
		c-0.176,1.127,0.173,1.911,1.426,2.099c0.643,0.096,1.393,0.064,1.583,0.943c-1.014,0.192-0.48,2.047-2.022,1.786
		c-1.111-0.187-1.643,0.531-1.753,1.646c-0.072,0.733,0.054,1.596,0.503,1.886c0.591,0.382,1.019-0.48,1.414-0.906
		c0.638-0.686,1.383-1.18,2.222-1.563c0.983-0.449,1.493-2.355,0.898-3.326c-1.317-2.15-1.232-2.509,0.744-3.145
		c-0.175-0.564-0.979-0.78-0.838-1.664c3.339,0.507,0.847-2.341,2.203-3.492c-0.436,2.395,0.349,4.256,1.809,5.895
		c0.956-0.877-0.073-1.816-0.4-2.569c-0.353-0.813-1.841-1.181-0.697-2.597c0.606,0.977,1.258,1.896,2.429,2.252
		c0.143-0.65-0.383-0.856-0.694-1.192c-0.816-0.884-0.825-0.969,0.163-1.729c0.495-0.38,0.007-0.599-0.055-0.895
		c-0.15-0.72-0.64-1.208-1.198-1.649c0.486-0.642,1.29,0.215,1.683-0.564c-0.438-0.469-0.848-1.021-1.146-1.665
		c-0.247-0.536-0.356-0.982,0.35-1.105c0.438-0.075,0.648,0.029,0.361-0.57c-0.323-0.676-1.844-1.579,0.159-2.191
		c0.224-0.068-0.258-0.402-0.431-0.603c-0.227-0.264-0.228-0.784,0.054-0.697c2.268,0.702,0.852-1.175,1.244-1.758
		c0.152-0.227,0.085-0.601,0.126-0.979c0.451,0.773,0.024,1.579,0.344,2.432c0.457,0.176,0.92-1.016,1.369-0.262
		c0.265,0.443-0.134,0.915-0.559,1.224c-0.238,0.173-0.619,0.337-0.477,0.682c0.315,0.761,1.1,0.323,1.642,0.52
		c0.076,1.112-0.964,1.453-1.426,2.116c0.037,0.352,0.202,0.543,0.483,0.479c0.717-0.164,1.204,0.068,1.434,0.764
		c0.278,0.846-0.354,1.192-0.888,1.623c-0.345,0.278-1.26,0.087-0.91,0.974c0.129,0.326-0.016,0.819,0.411,0.964
		c0.556,0.189,0.94-0.193,1.233-0.585c0.378-0.506,0.846-1.106,1.42-0.604c0.478,0.42,0.062,1.141-0.422,1.387
		c-0.708,0.362-0.396,0.935-0.498,1.421c-0.179,0.849-0.064,1.845-1.241,2.054c0.271,0.703,0.769,0.52,1.165,0.55
		c1.066,0.083,1.177,0.966,0.677,1.397c-1.366,1.182-0.494,3.114-1.675,4.326c-0.288,0.296-0.191,0.941,0.243,1.339
		c0.452,0.412,0.817-0.005,1.182-0.135c0.974-0.347,1.282-1.613,2.57-1.816c-0.72,1.444-1.397,2.804-2.075,4.163
		c-0.308,0.617-1.122,0.43-1.557,1.08c-0.285,0.427-0.941,0.686-0.491,1.225c0.517,0.619,0.708-0.229,1.072-0.406
		c1.498-0.725,2.617-2.655,4.72-1.598c-0.015,0.144,0.015,0.289-0.045,0.363c-1.526,1.893-1.285,2.892,1.01,3.692
		c0.97,0.338,1.471-0.222,1.53-1.202c0.077-1.265-0.243-2.589,0.738-4.015c0,1-0.041,1.741,0.012,2.476
		c0.049,0.67,0.08,1.438,1.115,1.29c0,12.371,0,24.743,0,37.115c-0.643,0.341-1.337,0.171-2.004,0.172
		c-180.778,0.008-361.556,0.008-542.333,0c-0.666,0-1.356,0.166-1.998-0.172c0-11.877,0-23.754,0-35.631
		c1.453,0.205,0.682-0.764,0.555-1.197c-0.355-1.218-0.538-2.158,1.408-1.354c-0.493-0.987-1.305-1.644-0.896-2.738
		c0.345-0.924,1.051-0.277,1.561-0.438c-1.031-4.262,0.473-8.201,1.291-12.146c0.955,1.186-1.019,3.583,1.708,4.111
		c1.198,0.564,0.163-0.671,0.588-0.73c0.246-1.226-0.755-1.94-1.312-2.936c1.147-0.101,2.184,0.058,3.197-0.336
		c1.256-0.488,1.599-1.351,0.836-2.398c-0.751-1.033-1.454-2.1-2.195-3.177c0.279-0.684,1.178-0.164,1.49-0.802
		c0.208-0.425,1.02-0.703,0.014-1.197c-0.867-0.427-0.356-1.482-1.207-2.417c1.36,0.326,2.225,0.986,3.313,0.49
		c-0.321-0.855-1.177-1.531-1.048-2.567c0.038-0.301-0.046-0.871,0.003-0.88c1.861-0.328,0.359-1.278,0.298-1.866
		c-0.09-0.868-0.897-1.59,0.413-2.439c0.973-0.631,0.815-2.102,0.736-3.288c-0.093-1.392-0.267-2.79,0.215-4.449
		c0.96,1.79,0.197,3.578,0.848,5.173c0.728,1.786,1.963,2.409,3.878,2.29c-0.595-1.522-1.746-2.744-2.097-4.312
		c0.581-0.312,0.764,0.144,1.067,0.249c0.732,0.255,1.216-0.439,1.862-0.541c-0.349-0.504,0.057-1.268-0.599-1.674
		c-0.819-0.507-1.034-1.311-1.021-2.212c0.154-0.307,0.302-0.624,0.746-0.431c0.411,0.123,0.811,0.749,1.245,0.052
		c0.383-0.616-0.259-0.673-0.531-0.937c-1.341-1.298-2.677-2.601-2.561-4.874c0.736,0.454,1.245,0.815,1.591,1.436
		c0.266,0.476,0.761,0.98,1.329,0.453c0.537-0.497,0.122-1.077-0.283-1.428c-0.922-0.8-1.819-1.577-1.921-3.081
		c0.565,0.265,0.969,0.483,1.396,0.644c0.349,0.131,0.793,0.219,1.009-0.148c0.179-0.304,0.077-0.672-0.257-0.942
		c-0.589-0.477-1.077-1.138-0.81-1.863c0.315-0.859,1.108,0.702,1.615-0.322c-0.383-0.881-0.824-1.896-1.26-2.897
		c0.624-0.583,0.945,0.537,1.63,0.073c-1.357-1.732,0.47-3.641-0.613-5.977c1.17,1.204,1.509,0.424,1.95-0.055l-0.041-0.015
		c-0.365,0.145-0.388,0.687-0.237,0.671c1.997-0.208,0.872,0.901,0.651,1.545c-0.251,0.734-0.646,1.216,0.242,2.04
		c0.413,0.384-0.414,2.019-0.537,3.103c-0.057,0.504-0.825,1.672,0.813,1.299c0.662-0.151,0.263,0.491,0.307,0.755
		c0.179,1.055-0.555,1.84-0.953,2.696c-0.293,0.631-0.509,1.396-0.053,1.663c0.379,0.223,1.276,0.015,1.492-0.864
		c0.15-0.612,0.614-1.025,1.331-1.198c-0.245,2.145-1.251,3.889-2.434,5.703c1.396,0.038,1.408,0.709,0.676,1.758
		c-0.599,0.857-1.722,1.709-0.411,2.89c0.043,0.039-0.263,0.465-0.475,0.828c1.087,0.148,1.436-1.13,2.362-0.981
		c0.071,0.086,0.218,0.219,0.196,0.257c-1.074,1.933-0.315,2.916,1.606,3.64c1.671,0.63,2.94,2.099,5.135,2.576
		c-2.438-4.39-6.253-8.011-6-13.482c2.435,2.312,5.292,3.776,8.632,4.338c-0.149-1.548-1.344-2.344-1.974-3.412
		c-1.118-1.897-2.46-3.716-3.292-5.856c-0.662-1.703-0.618-3.116-0.219-4.782c1.896,0.809,3.084,2.697,5.365,2.654
		c2.167-0.042,2.351-0.198,1.616-2.226c-0.34-0.939-0.998-1.658-1.391-2.544c-0.116-0.261-0.309-0.602-0.673-0.5
		c-2.271,0.635-2.696-0.592-3.499-2.5c-0.813-1.934-1.099-3.847-1.474-5.807c-0.063-0.333-0.214-0.784,0.228-0.969
		c0.324-0.136,0.475,0.223,0.706,0.405c1.552,1.225,3.306,0.841,4.884,0.523c0.213-1.83-3.135-2.038-1.974-4.414
		c-1.255-1.27-2.124-2.699-1.938-4.73c1.866,2.137,4.317,2.294,6.868,2.621c-2.59-4.713-6.412-8.61-6.852-14.341
		c0.912,1.933,2.612,0.59,3.848,1.173c0.613,0.29,0.494-0.426,0.375-0.842c-0.254-0.897-1.134-0.545-1.69-0.841
		c-0.472-0.251-1.388,0.757-1.519-0.571c-0.117-1.182-0.347-2.361,0.469-3.395c0.185-0.234,0.478-0.425,0.8-0.223
		c0.786,0.491,1.546,0.381,2.377,0.07c0.872-0.326,0.864,0.877,1.966,1.104c-1.36-1.735-0.433-4.041-3.02-5.217
		c-1.431-0.651-2.123-2.938-3.128-4.501c-0.065-0.101-0.013-0.411,0.072-0.455c1.627-0.844,2.395-2.707,4.192-3.398
		c1.343-0.517,1.722-2.221,3.06-2.894c0.189-0.096,0.147-1.118-0.096-1.527c-1.118-1.876-1.773-4-3.417-5.611
		c-1.098-1.076-2.073-2.509-0.759-4.244c1.504,0.982,2.169,3.048,4.499,3.305c-1.324-2.752-3.315-5.014-3.802-8.071
		c1.336-0.417,1.855,0.927,2.695,1.553c0.318,0.237,0.524,0.828,0.967,0.527c0.641-0.435-0.155-0.663-0.286-0.993
		c-0.158-0.399-0.488-0.793-0.48-1.185c0.047-2.567-0.997-4.947-1.281-7.642c0.565,0.396,0.692,0.87,0.822,1.324
		c0.292,1.015,0.984,1.709,1.861,2.192c0.419,0.232,1.017,0.288,1.429-0.007c0.422-0.302,0-0.772-0.002-1.17
		c-0.024-3.077-1.879-5.368-3.351-7.833c-0.537-0.899,0.396-2.158-0.592-3.052c0.435,0.281,0.866,0.568,1.306,0.842
		c1.407,0.876,1.417,0.875,1.568-0.585c0.035-0.337,0.329-0.274,0.47-0.411c0.383-0.367,0.891-0.897,0.365-1.372
		c-0.498-0.449-0.802,0.065-1.071,0.532c-0.084,0.147-0.761,0.604-0.836,0.098c-0.282-1.887-1.799-3.323-1.918-5.406
		c1.168,0.672,1.816,1.752,2.923,2.331c0.636,0.333,0.896-0.03,1.277-0.151c0.538-0.171,0.285-0.602,0.088-0.892
		c-0.531-0.781,0.153-1.404,0.246-2.098c0.208-1.553,0.739-3.109-1.006-4.255c-0.391-0.257-0.759-1.262-0.569-1.567
		c0.815-1.308-0.283-2.319-0.307-3.507c0.073-0.222,0.244-0.108,0.404-0.053c0.663,0.227,1.345,0.965,2.001,0.449
		c0.576-0.453-0.45-1.195-0.178-1.695c0.91-1.672,0.521-3.442,0.566-5.18c0.033-1.262-0.057-2.536,0.597-3.763
		c0.046,1.541,0.849,2.956,0.489,4.52c-0.107,0.465-0.397,0.942,0.249,1.269c1.575,0.799,1.658,1.201,0.708,2.887
		c-0.143,0.252-0.149,0.599,0.136,0.84c0.592,0.066,0.826-1.446,1.517-0.455c0.345,0.494,0.692,1.114-0.033,2.049
		c-0.721,0.931-1.496,2.063-1.855,3.287c-0.324,1.103-0.057,1.693,1.278,1.204c0.793-0.291,1.621-0.458,2.052-1.433
		c0.382,0.641,0.983,1.314,0.466,1.588c-1.835,0.97-0.756,2.974-1.702,4.306c-0.525,0.74-0.92,1.824-0.989,2.949
		c-0.061,1.007,0.186,1.479,1.046,1.831c0.396,0.163,1.099,0.001,1.058,0.77c-0.033,0.608-0.234,1.008-0.981,1.049
		c-0.154,0.009-1.379,0.12-0.662,1.181c0.525,0.777,0.961,0.878,1.545,0.306c0.722-0.708,1.556-0.858,2.968-0.784
		c-2.839,2.31-4.043,5.084-4.06,8.487c1.366-0.354,1.959-1.431,2.8-2.157c-0.165,1.549-1.044,3.221-1.846,4.626
		c-1.22,2.139-1.595,4.6-2.043,6.994c-0.173,0.922,0.562,0.503,0.98,0.38c1.016-0.299,1.151-1.581,2.299-1.996
		c-0.009,1.455-0.76,2.797-0.199,4.393c-0.808-0.462-0.381-1.381-1.202-1.574c0.381,1.223-0.911,1.871-1.002,3.11
		c-0.096,1.311-0.816,2.572,0.129,4.269c1.017-2.376,2.994-3.541,4.899-5.295c-0.45,1.736,0.145,3.062,0.238,4.438
		c0.043,0.649,0.512,1.712-0.951,1.178c-0.228-0.083-0.534-0.186-0.582,0.171c-0.359,2.678-2.64,4.565-2.873,7.356
		c1.915,0.272,3.101-1.49,4.909-1.982c-0.327,1.228-0.705,2.415-0.766,3.68c-0.054,1.109-0.866,0.927-1.353,0.379
		c-0.867-0.975-0.946-0.745-1.164,0.393c-0.181,0.947-0.783,1.833-1.285,2.695c-0.61,1.051-0.155,1.233,0.825,1.295
		c1.144,0.073,2.148-0.316,3.273-0.827c-0.328,1.961-1.586,3.402-1.966,5.169c-0.058,0.271-0.24,0.376-0.515,0.43
		c-0.38,0.074-0.986-0.274-1.093,0.343c-0.123,0.712,0.604,0.842,1.044,1.113c1.383,0.852,2.79,2.019,4.12-0.125
		c0.793,1.592-0.099,3.581-1.782,3.823c-1.742,0.25-1.556,2.042-2.581,2.875c-0.455,0.37-0.052,1.076,0.874,0.975
		c0.974-0.107,1.968-0.024,2.956-0.024c0.129,2.414-1.195,4.871-3.094,5.71c1.631,2.294,3.885,1.768,6.254,1.156
		c-0.617,1.313-1.165,2.386-1.224,3.669c-0.018,0.389,0.029,1.944-1.334,0.938c-0.073-0.054-0.435,0.092-0.45,0.182
		c-0.35,2.008-2.462,2.482-3.434,3.962c-0.536,0.817,0.087,1.04,0.428,1.517c0.328,0.459,0.556,0.854,1.077,0.274
		c0.874-0.973,2.841-0.938,2.541-3.056c-0.101-0.708,0.969-0.753,1.657-0.639c0.924,0.154,1.722,0.083,2.117-1.019
		c-0.989-0.561-2.73-0.75-0.793-2.492c0.906-0.814,0.941-2.535,0.371-3.768c-0.43-0.932-0.111-2.067-0.92-2.84
		c-0.037-0.036-0.061-0.135-0.038-0.176c1.253-2.3-1.476-3.037-1.837-4.7c-0.009-0.042,0.05-0.1,0.202-0.378
		c1.298,0.932,2.578,1.852,4.177,3c-1.834-2.884,1.004-5.298-0.005-8.139c0.497,0.354,0.783,0.556,1.104,0.785
		c0.14-0.655,0.114-1.231-0.231-1.777c-1.372-2.174-1.87-4.196,0.645-6.028c0.77-0.561,0.177-1.426-0.451-1.793
		c-0.981-0.573-1.592-1.477-2.393-2.201c-0.321-0.291-0.587-0.476-0.354-0.838c0.352-0.543,0.955-0.152,1.108,0.065
		c0.7,0.989,1.876,1.325,2.712,2.334c0.1-0.911-0.413-1.385-0.631-1.967c-0.139-0.372-0.727-0.912,0.253-1.324
		c0.251-0.106-0.035-1.582-0.54-2.297c-0.715-1.013-0.998-2.182-1.335-3.33c0.391-0.235,0.773-0.216,1.108-0.052
		c1.029,0.507,1.209,0.104,1.315-0.913c0.227-2.177-0.13-4.292-0.433-6.414c-0.156-1.091,0.004-2.095,0.525-3.012
		c0.466-0.82,0.562-1.723,0.832-2.6c0.181,2.41,0.76,4.795-0.09,7.208c-0.367,1.041-0.046,1.376,1.657,2.537
		c-0.573,0.455-1.502,0.5-1.442,1.62c0.058,1.063,0.728,1.323,1.751,1.548c-2.194,1.847-0.92,3.036,0.456,4.363
		c1.345,1.297,1.219,3.062-0.402,3.851c-0.973,0.473-1.081,0.967-1.026,1.783c0.065,0.955-0.285,1.814-0.575,2.692
		c-0.094,0.287-0.23,0.644,0.063,0.855c0.268,0.193,0.567-0.027,0.862-0.112c1.007-0.289,1.124-1.415,1.886-1.924
		c0.297-0.198,0.534-0.604,0.949-0.364s0.258,0.621,0.104,0.965c-0.763,1.692-1.483,3.406-2.306,5.069
		c-0.368,0.743-0.488,1.494-0.573,2.329c0.276,0.033,0.52,0.049,0.758,0.091c0.816,0.145,2.249-0.359,2.311,0.447
		c0.067,0.88-0.983,1.789-1.785,2.529c-0.282,0.26-0.625,0.229-0.939,0.485c-2.512,2.046-0.825,3.956,0.015,5.906
		c0.064,0.15,0.225,0.259,0.341,0.386c0.992-1.039,1.469,0.36,2.212,0.511c1.193,0.242,1.532-0.874,2.186-1.318
		c0.426-0.29,0.772-1.23,1.243-1.844c1.189,1.576,1.118,1.599-0.399,2.542c-0.935,0.581-1.794,1.647-2.28,2.394
		c-1.275,1.958-2.255,1.031-3.611,0.244c0.197,0.83,0.435,1.528,0.517,2.245c0.16,1.39,1.307,1.673,2.146,1.36
		c1.415-0.528,2.771-0.1,4.168-0.36c-0.523,1.992-1.953,3.153-4.511,3.037c-2.252-0.102-1.715,1.134-1.699,2.418
		c0.022,1.745,1.297,1.484,2.306,1.52c0.497,0.018,1.086-0.553,1.391,0.232c0.242,0.623,0.042,1.2-0.51,1.645
		c-0.51,0.41-1.116,0.676-1.316,1.455c-0.294,1.147-0.986,1.078-1.829,0.114c-0.161,1.672,0.535,2.741,1.64,3.53
		c0.973,0.695,1.959,0.955,2.891-0.275c0.264-0.349,1.276-0.614,1.491,0.235c0.199,0.786,0.181,1.609-0.603,2.347
		c-1.402,1.321-2.78,0.514-4.198,0.082c0.082,3.018,3.994,2.714,4.17,5.388c0.706,0.055,0.489-0.479,0.664-0.718
		c0.533-0.731,1.18-0.575,1.774-0.139c0.768,0.563,0.273,1.079-0.193,1.482c-1.33,1.15-2.47,2.427-3.5,3.879
		c-0.625,0.883,0.184,2.598-1.596,2.75c-0.017,0.001-0.075,0.386,0.004,0.523c0.732,1.279,1.385,2.64,2.788,3.426
		c0.504-0.825,0.047-1.358-0.088-2.017c0.577,0.037,0.861,0.434,1.152,0.76c0.255,0.285,0.295,0.978,0.869,0.599
		c0.419-0.277,0.828-0.749,0.973-1.218c0.207-0.667-0.561-0.302-0.821-0.549c-0.737-0.697-1.583-1.305-1.696-2.689
		c2.403,0.969,3.539-1.244,5.294-1.993c0.15-0.063,0.237-0.273,0.354-0.416c-1.11-0.878-0.728-2.864-1.332-3.249
		c-1.464-0.932-1.48-2.031-1.143-3.226c0.248-0.878-0.554-0.945-0.712-1.501c-0.457-1.613-0.295-3.228-0.366-5.017
		c0.831,0.483,1.036,1.386,1.754,1.843c0.746,0.475,1.239,0.143,1.872-0.073c0.791-0.27,0.533-0.804,0.472-1.333
		c-0.062-0.539-0.207-1.103,0.379-1.5c0.25-0.169,0.231-0.327-0.068-0.523c-2.338-1.534-1.86-4.326-2.84-6.471
		c-0.252-0.551,0.016-0.946,0.718-0.91c0.598,0.031,1.198,0.006,2.032,0.006c-0.551-0.825-0.961-1.398-1.325-1.997
		c-0.253-0.415-1.172-0.653-0.638-1.265c0.417-0.479,1.022,0.001,1.495,0.292c0.255,0.157,0.515,0.307,0.993,0.591
		c-0.246-1.234-1.961-1.782-0.988-3.195c0.636,0.337,1.319,0.7,2.27,1.205c-0.758-2.038-0.647-3.969-1.162-5.781
		c-0.292-1.027,0.421-1.562,1.017-1.629c0.606-0.068,1.245,0.725,0.981,1.419c-0.568,1.496,0.173,2.895,0.14,4.347
		c-0.028,1.223,0.098,2.386-0.368,3.598c-0.583,1.515,0.578,1.784,1.945,1.861c-1.471,0.98-1.8,1.926-0.271,2.888
		c0.423,0.266,0.684,0.655,0.449,1.076c-0.937,1.674,0.044,3.699-1.172,5.328c1.016,0.49,1.185-0.952,2.149-0.593
		c-0.282,0.79-0.503,1.569-0.381,2.518c0.136,1.065-1.59,1.254-2.067,2.316c-0.202,0.45-0.896,0.746-0.564,1.365
		c0.427,0.795,0.929-0.047,1.327-0.013c1.415,0.12,2.802,0.462,4.244,0.538c0.516,0.027,0.101,0.679-0.306,0.859
		c-2.033,0.907-3.314,2.337-3.222,5.265c-0.489-1.803-1.734-1.163-2.393-1.813c-0.472,0.676,0.11,1.278,0.249,1.357
		c1.723,0.979,2.137,3.31,4.154,3.961c1.104,0.356,0.566,1.482,0.377,1.826c-0.283,0.515-1.193,0.637-1.832,0.196
		c-0.312-0.216-0.486-0.627-0.794-1.047c0,2.821,0.715,3.835,3.399,4.505c0.854,0.214-0.226,0.728,0.332,0.924
		c0.726,0.255,1.032,1.178,2.354,1.313c-2.114-1.634-1.628-3.848-2.093-5.808c1.608-0.082,2.923,1.237,4.721,0.977
		c-1.369-2.814-4.33-4.881-3.493-8.536c1.155,0.326,2.317,1.191,3.755,0.671c-2.19-1.723-3.101-4.098-3.7-6.944
		c1.623,1.004,2.927,2.251,4.919,2.202c-2.434-1.741-2.293-4.602-3.674-6.725c1.237,0.619,2.214,1.51,3.823,0.986
		c-1.053-1.061-0.924-2.72-2.605-3.338c-1.166-0.428-0.722-2.01-1.208-3.006c-0.135-0.276,0.742-0.471,1.247-0.434
		c1.085,0.079,2.17,0.414,3.413,0.099c-0.808-1.626-2.686-2.463-2.554-4.472c0.797-0.243,1.628,0.569,2.593-0.059
		c-1.023-1.117-1.021-2.66-1.832-4.152c1.234,0.379,2.091,1.196,3.293,1.017c-0.463-1.307-0.9-2.539-1.369-3.86
		c0.629-0.085,1.277,0.508,1.741-0.151c0.504-0.717-0.339-0.954-0.568-1.369c-0.449-0.814-0.331-1.658-0.384-2.499
		c-0.009-0.144,0.047-0.372,0.148-0.431c1.191-0.686,1.195-0.679,1.418-2.349c0.204-0.258,0.409-0.257,0.614-0.001
		c-0.142,2.286,1.078,4.507,0.261,6.854c0.746-1.085,0.718-2.431,1.755-3.797c-0.166,2.662-0.552,4.912-1.151,7.176
		c0.686,0.333,0.889-0.843,1.615-0.435c-0.768,2.194-0.153,4.707-1.487,6.874c0.808-0.536,1.616-1.071,2.596-1.721
		c0.305,1.631,0.635,3.058-0.558,4.386c-0.35,0.389-0.494,0.965-0.72,1.461c-0.355,0.778-1.042,1.768-0.26,2.375
		c0.997,0.773,1.186-0.834,2.333-1.297c-0.525,3.381-2.356,6.098-2.791,9.242c0.817-0.293,1.549-0.556,2.528-0.908
		c-0.052,1.824-1.946,2.827-1.6,4.542c1.415,0.08,2.145-1.312,3.592-1.861c-0.729,4.235-2.733,7.672-5.091,11.231
		c2.132-0.063,3.546-1.161,4.934-2.156c0.404-0.289,0.88-0.598,1.249-0.982c0.654-0.68,1.207-0.978,2.098-0.154
		c0.549,0.507,1.505,1.399,2.126,0.967c1.033-0.72,0.195-1.864-0.277-2.575c-0.806-1.215-1.298-2.439-1.139-3.956
		c0.891-0.033,1.267,0.807,1.839,1.379c0.568-1.035,0.434-2.157,0.525-3.243c0.926-0.031,0.218,0.831,0.601,1.097
		c0.724,0.978,2.386,1.752,0.535,3.419c1.672-0.857,3.119-0.027,4.597,0.001c2.089,0.04,2.926-0.9,3.114-2.985
		c0.246-2.716-0.375-5.364-0.4-8.057c-0.028-2.912,1.18-5.573,1.383-8.425c0.41,1.431,0.014,5.319-0.128,6.572
		c-0.17,1.495-0.688,3.167,0.643,4.482c0.516,0.51,0.791,0.807,0.072,1.523c-0.776,0.772-0.37,1.985-0.404,3.014
		c-0.129,3.944-0.124,3.939,3.706,4.615c0.711,0.125,1.86,0.429,1.567,1.065c-0.278,0.604-0.94,1.914-2.136,1.405
		c-1.608-0.683-1.674,0.111-1.776,1.384c-0.1,1.248-0.104,2.525-0.674,3.745c-0.331,0.707-0.022,1.619,0.708,2.118
		c1.267,0.865,2.584,1.655,3.93,2.508c0-1.016,0.001-1.84-0.001-2.665c-0.001-0.09-0.029-0.181-0.045-0.271
		c2.5-0.106,0.754-2.123,1.377-3.076c0.092-0.141,0.109-0.329,0.196-0.608c0.301,1.274,0.118,2.447,0.15,3.612
		c0.015,0.552-0.313,1.313,0.697,1.402c0.295,0.026,0.471,0.31,0.113,0.383c-1.213,0.246-0.977,1.054-0.519,1.611
		c0.775,0.945,1.107-0.565,1.918-0.507c0.108,0.913-0.041,1.783-0.171,2.673c-0.137,0.929-0.348,1.833,0.611,2.653
		c0.695,0.594-0.122,1.522-0.214,2.279c-0.133,1.099-0.133,1.775,0.686,2.753c0.707,0.843,0.544,2.413,0.766,3.662
		c-0.241,2.654-0.124,2.955,1.513,3.885c-1.543-0.897-1.483-2.427-1.543-3.909c0.687,0.307,1.671,0.717,2.034,0.068
		c0.586-1.049-0.374-2.097-0.675-3.127c0.587-0.369,1.487,0.365,1.798-0.54c0.281-0.817-0.55-0.892-0.965-1.286
		c-1.016-0.966-0.741-2.328,0.6-2.809c-1.018-0.969-1.634-1.975-0.003-2.878c-0.104-0.549-0.557-1.177,0.338-1.501
		c0.011,2.727,1.08,5.275,1.333,7.965c0.09,0.957,0.908,1.388,1.879,1.91c-2.33,0.519-1.616,2.202-1.507,3.465
		c0.163,1.885,1.742,1.344,3.091,1.408c-0.278-0.722-0.676-1.355-0.736-2.021c-0.064-0.708-1.297-1.977,0.713-2.033
		c0.502-0.015,0.307-0.451,0.159-0.675c-1.182-1.79,0.568-3.352,0.435-5.123c-0.063-0.849,0.035-2.016,0.468-3.126
		c0.784,1.028,0.516,2.045,0.351,3.03c-0.516,3.072-0.015,3.93,2.881,4.822c1.103,0.339,2.249,0.548,3.283,1.19
		c0.602-0.654-0.468-1.761,0.762-2.19c0.271-0.095-0.018-1.251-0.372-1.453c-1.33-0.764-1.892-2.283-3.189-3.032
		c-0.366-0.212-0.921-0.298-0.928-0.788c-0.009-0.614-0.704-1.246-0.271-1.721c0.47-0.515,1.137-0.001,1.693,0.216
		c0.626,0.242,1.246,0.501,1.868,0.752c1.005,0.533,2.009,0.536,3.014-0.002c0.864-2.474,0.864-2.474-1.391-3.428
		c-0.112-0.047-0.259-0.085-0.317-0.175c-1.623-2.513-4.301-4.168-5.624-6.915c-0.225-0.468-0.171-1.254,0.553-0.801
		c1.544,0.964,3.201,1.303,4.946,1.492c0.576,0.063,1.11,1.194,1.695,0.237c0.484-0.793,0.831-1.721,0.175-2.705
		c-1.223-1.836-1.856-4.084-3.828-5.392c-0.143-0.096-0.356-0.333-0.322-0.41c0.665-1.515-0.572-2.752-0.805-4.331
		c1.308,0.403,2.363,0.585,3.278,1.404c0.475,0.426,1.228,1.553,2.077,0.489c0.92-1.152-0.274-1.574-0.964-2.058
		c-2.071-1.453-3.416-3.31-3.569-6.271c1.637,1.642,3.054,3.303,5.474,2.31c-0.735-1.972-2.287-3.605-3.375-5.939
		c1.722,0.632,3.289,1.258,4.688-0.258c-0.007-1.453-2.039-2.045-2.092-3.597c-0.053-1.58-0.902-2.592-1.982-3.583
		c1.179,0.408,2.151,1.064,2.914,1.994c0.53,0.647,1.212,0.733,1.647,0.154c0.366-0.487,0.19-1.072-0.604-1.402
		c-1.573-0.654-2.449-2.104-3.356-3.439c-0.497-0.73-0.885-1.625-0.089-2.602c0.628,0.545,1.389,1.103,2.02,1.781
		c0.56,0.601,1.167,1.109,1.832,0.44c0.73-0.734-0.047-1.211-0.566-1.706c-1.119-1.066-2.279-2.119-2.706-3.869
		c0.755,0.312,1.37,0.526,1.949,0.813c0.62,0.307,1.301,0.458,1.56-0.272c0.146-0.41,0.307-1.099-0.509-1.514
		c-1.045-0.531-1.277-1.609-1.114-2.912c0.419,0.293,0.73,0.562,1.086,0.746c0.415,0.215,0.809,0.163,1.159-0.218
		c0.385-0.418,0.012-0.682-0.169-0.944c-0.75-1.082-1.353-2.232-1.791-3.611c1.002,0.175,1.617,1.134,2.642,1.167
		c-0.275-1.689-1.131-3.061-1.547-4.633c0.485,0.279,0.636,0.999,1.378,0.853c0.432-1.317-0.486-2.584-0.23-3.981
		c0.626,0.207,0.696,1.369,1.474,1c0.697-0.332,0.132-1.124,0.293-1.687c0.049-0.173,0.076-0.389,0.018-0.551
		c-1.005-2.844,0.193-5.648,0.255-8.499c0.595,1.208,0.82,2.558,0.491,3.819c-0.544,2.084-0.066,4.182-0.347,6.269
		c-0.158,1.171,1.104-0.159,1.491,0.583c0.026,0.586-0.65,0.891-0.864,1.43c-0.35,0.884-1.26,1.792,0.285,2.607
		c0.457,0.242,0.279,1.233-0.058,1.827c-0.372,0.657-0.518,1.347-0.625,2.086c-0.277,1.908-0.311,1.903,1.635,1.755
		c0.373,1.87-0.712,3.368-1.485,4.845c-0.344,0.657-0.286,1.14-0.2,1.658c0.083,0.502,0.272,0.669,0.959,0.222
		c1.134-0.738,1.733-2.115,3.256-2.544c-0.292,2.608-1.369,4.742-3.107,6.559c-0.211,0.221-0.439,0.3-0.364,0.699
		c0.104,0.556,0.421,0.482,0.809,0.437c0.876-0.104,1.33,0.004,0.573,0.958c-0.577,0.727-1.08,1.53-1.504,2.356
		c-0.227,0.441-0.908,0.884,0.381,1.366c1.262,0.471-0.563,1.177-0.573,2.053c1.103-0.108,1.909-0.538,2.416-1.447
		c0.332-0.595,0.905-0.458,1.266-0.293c0.593,0.271,0.16,0.758-0.053,1.071c-0.63,0.93-0.543,1.995-0.631,3.027
		c-2.282-0.28-2.282-0.28-2,2.244c0.861-0.489,1.751-0.958,2.754-1.08c0.286-0.035,0.495,0.32,0.509,0.67
		c0.016,0.39-0.002,0.818-0.511,0.792c-0.787-0.04-0.861,1-1.515,0.822c1.942,3.589,4.067,0.078,6.339,0.18
		c-1.041,1.817-1.603,3.861-4.138,3.88c-0.07,0.001-0.191,0.191-0.198,0.299c-0.01,0.174,0.005,0.46,0.101,0.506
		c0.21,0.1,0.477,0.089,0.722,0.103c0.859,0.048,2.03,0.254,2.01,1.062c-0.026,1.022-0.728,2.162-2.021,2.245
		c-1.45,0.094-0.933,0.76-0.477,1.356c1.683,2.202,1.2,4.813-0.887,6.452c-1.028,0.808-0.996,2.412-1.364,3.773
		c1.36-1.096,3.018-1.623,4.242-2.865c0.68-0.69,1.49-1.313,2.349-1.753c1.598-0.819,1.877-2.177,1.488-3.643
		c-0.212-0.8-0.143-1.146,0.312-1.867c0.639-1.016,0.327-2.399,0.251-3.634c-0.03-0.492-0.057-0.984-0.101-1.755
		c0.588,0.742,0.721,1.348,0.768,2.025c0.159,2.264,0.596,4.587,0.568,6.756c-0.025,1.914,1.252,4.036-0.325,6.014
		c-0.519,0.651-0.644,1.983,1.137,2.214c0.729,0.094,0.706,1.34,0.053,1.996c-0.372,0.375-1.005,0.491-1.09,1.147
		c0.905,0.573,1.909,0.098,2.854,0.208c-0.867,1.56-1.702,3.061-2.66,4.782c1.146-0.071,2.006-0.179,2.855-0.523
		c0.732-0.298,1.219,0.331,0.866,0.759c-0.555,0.673-0.295,1.675-0.971,2.134c-0.892,0.605-0.983,1.458-0.675,2.236
		c0.383,0.97,1.321,0.071,1.973,0.308c0.161,0.059,0.335,0.077,0.471,0.106c-0.596,2.108-2.902,3.062-3.44,5.369
		c0.837,0,1.647,0,2.456,0c0.093,0.084,0.123,0.168,0.092,0.252c-0.032,0.083-0.063,0.124-0.094,0.124
		c-0.034,1.44-1.171,1.858-2.184,2.436c-0.339,0.193-1.051-0.127-1.007,0.514c0.06,0.864-1.606,1.126-0.73,2.15
		c0.457,0.534,2.855-0.096,3.241-0.861c0.447-0.885,0.921-0.125,1.053,0.051c0.645,0.86,1.498,0.779,2.3,0.539
		c1.162-0.35,1.477-1.77,0.469-2.118c-1.205-0.418-1.05-1.46-0.768-1.79c0.714-0.835,1.049,0.594,1.726,0.584
		c0.383-0.281,0.767-0.254,1.152-0.006c-0.883,2.077,0.29,4.382-0.779,6.474c1.626-0.877,1.267-2.778,2.304-4.08
		c0.406,1.773-0.437,3.281-0.752,4.797c-0.621,2.983,0.518,4.652,3.762,4.635c-0.296-0.486-0.468-1.027-0.837-1.323
		c-1.024-0.82-2.835-1.248-0.543-2.887c0.537-0.383,0.131-2.149,0.063-3.273c-0.021-0.332-0.396-0.844,0.095-0.885
		c2.217-0.188,0.732-1.247,0.66-2.126c-0.086-1.055-0.058-2.085-0.88-3.222c1.067,0.278,1.858,0.483,2.766,0.72
		c-0.213-2.017-0.892-3.752-2.062-5.394c3.158-0.246,3.207-0.348,1.644-2.869c-1.174-1.893-1.158-1.925,1.262-2.201
		c-1.146-0.843-0.513-2.167-1.123-3.133c-0.057-0.09-0.057-0.331-0.044-0.334c2.478-0.575,0.596-1.976,0.614-3.033
		c0.01-0.567,0.895-0.674,0.912-1.428c0.023-1.027,0.261-2.051,0.541-3.071c-0.088,1.998-0.032,4.09,0.358,5.922
		c0.565,2.654-0.5,5.363,0.659,7.893c0.073,0.16,0.236,0.413,0.181,0.479c-1.01,1.238-0.462,2.409,0.275,3.43
		c1.137,1.575,2.722,2.649,4.547,3.304c0.562,0.202,1.217,0.179,1.831,0.194c1.225,0.031,2.444,0.104,3.643-0.348
		c1.733-0.654-0.028-2.102,0.999-2.975c-1.142-0.125-2.039,1.192-2.747,0.276c-0.529-0.685,0.207-1.691,0.276-2.632
		c-0.393,0.043-0.625,0.563-1.069,0.359c-1.892-0.87-3.516-2.16-5.126-3.434c-0.681-0.537-0.659-1.317,0.51-1.498
		c1.688-0.259,3.372-0.544,5.104-0.826c-0.505-1.327-1.357-1.422-2.388-1.246c-1.128,0.192-2.202,0.104-3.085-0.795
		c-1.232-1.256-1.094-1.933,0.583-2.578c1.691-0.652,1.865-1.609,0.538-2.913c-0.395-0.389-0.818-0.768-1.122-1.223
		c-0.188-0.281-0.135-1.011,0.143-0.924c1.202,0.381,2.633-0.763,3.663,0.587c0.792,1.039,1.921,1.662,2.986,2.375
		c0.68,0.456,1.232,0.379,1.531-0.261c0.308-0.66-0.308-0.801-0.816-0.858c-0.356-0.04-0.519-0.187-0.58-0.563
		c-0.106-0.654,0.151-2.092-1.155-0.627c-0.373,0.418-0.27-0.094-0.313-0.223c-0.33-0.993-0.491-2.095-1.685-2.506
		c0.664-1.649-1.489-2.327-1.297-3.94c1.412,0.532,2.035,2.057,3.399,2.566c0.629,0.234,1.291,0.772,1.867,0.188
		c0.609-0.619,0.583-1.431,0.052-2.186c-0.736-1.044-1.083-2.227-0.919-3.488c0.144-1.109-0.949-1.449-1.263-2.284
		c-0.37-0.984-0.362-1.649,0.875-1.509c1.103,0.126,1.443-0.594,1.997-1.428c-2.247-0.031-2.058-1.914-2.039-3.062
		c0.016-0.958,0.025-1.474-0.786-1.98c-0.5-0.311-0.792-0.995-0.495-1.463c0.417-0.656,0.978-0.056,1.433,0.175
		c0.492,0.25,0.947,0.571,1.422,0.856c0.628,0.377,1.006,0.422,1.366-0.453c0.284-0.692,0.557-1.137-0.225-1.586
		c-0.582-0.334-1.195-0.636-1.714-1.052c-0.586-0.471-0.708-1.129-0.35-1.821c0.297-0.575,0.687-0.978,1.432-0.78
		c0.41,0.108,0.877,0.226,1.166-0.251c0.379-0.629-0.339-0.829-0.537-1.224c-0.176-0.352-0.508-0.624-0.77-0.933
		c-0.266-0.313-0.862-0.479-0.721-0.975c0.194-0.683,0.854-0.379,1.25-0.298c0.804,0.164,0.951-0.527,1.188-0.898
		c0.303-0.474-0.341-0.662-0.63-0.933c-0.224-0.209-0.458-0.411-0.695-0.606c-0.449-0.371-0.599-1.018-0.282-1.306
		c0.443-0.403,0.958-0.12,1.252,0.474c0.114,0.23,0.427,0.361,0.722,0.595c0.525-1.474-0.249-2.845,0.401-4.181
		c0.046,0.58,0.111,1.159,0.137,1.739c0.116,2.54,0.112,2.54,2.495,2.342c-0.4,0.868-1.444,1.182-1.737,2.1
		c-0.035,0.11-0.005,0.241-0.005,0.558c0.603-0.349,0.916-1.157,1.722-0.931c0.485,1.794-1.001,2.862-1.604,4.318
		c0.592,0.278,1.35-0.848,1.893,0.238c0.456,0.913-0.303,1.326-0.617,1.888c-0.347,0.621-0.891,1.132-1.331,1.669
		c0.246,0.429,0.597,0.24,0.861,0.329c0.527,0.178,1.344-0.491,1.583,0.359c0.205,0.726-0.654,0.741-1.064,1.055
		c-0.817,0.626-0.66,1.666-1.05,2.487c0.505,0.542,1.493-0.306,1.758,0.555c0.249,0.805-0.572,1.281-0.957,1.828
		c-0.477,0.679-1.368,1.063-1.436,2.035c0.051,0.063,0.09,0.111,0.128,0.159c0.017-0.049,0.024-0.136,0.051-0.143
		c1.776-0.442,2.281-2.404,3.789-3.165c0.897,0.989,0.759,1.987-0.054,2.917c-0.841,0.962-1.472,2.019-1.743,2.856
		c1.706-1.427,2.612-3.579,2.454-6.137c0.046-0.241,0.01-0.582,0.156-0.703c0.32-0.267,0.368,0.139,0.437,0.312
		c0.4,1.014,0.439,2.123,0.115,3.094c-0.546,1.632,0.026,2.003,1.512,1.751c0.237-0.041,0.49,0.016,0.804,0.03
		c0.008,1.131-1.426,1.354-1.225,2.605c0.189,0.144,0.704-0.234,1.118-0.063c0.765,0.318,1.441,0.449,0.968,1.793
		c-0.581,1.65-1.679,3.048-1.946,4.844c0.348,0.023,0.823,0.045,1.296,0.093c0.393,0.039,0.742,0.262,0.841,0.613
		c0.119,0.417-0.292,0.631-0.573,0.86c-1.617,1.324-1.7,2.223-0.296,3.787c0.62,0.69,1.173,1.107-0.07,1.942
		c-0.81,0.544-1.837,1.755-0.463,2.991c0.573,0.517,0.553,1.2,0.408,1.886c-0.059,0.277-0.163,0.546-0.246,0.818
		c1.86,0.366,0.495,1.389,0.456,2.161c-0.075,1.506,0.677,2.416,2.128,2.773c0.653,0.161,1.349,0.202,1.908,0.639
		c0.295,0.229,0.584,0.483,0.474,0.919c-0.103,0.404-0.442,0.361-0.74,0.334c-0.296-0.026-0.782-0.127-0.662,0.292
		c0.53,1.856-0.788,1.416-1.749,1.523c-1.881,0.21-2.964,2.075-2.162,3.848c0.258,0.572-0.278,1.593,0.55,1.663
		c0.878,0.073,1.406-0.769,1.868-1.532c1.009-1.668,3.408-2.542,4.752-1.808c-0.062,1.401-1.072,2.131-2.058,2.86
		c-0.828,0.613-1.827,0.97-2.467,1.689c1.381-0.966,2.87-1.853,4.812-1.415c0.784,0.177,0.914-0.347,0.587-1.034
		c-0.317-0.667-1.056-1.361-0.061-2.081c2.964-0.951-0.258-2.124,0.302-3.205c1.501-0.3,1.533-0.687,0.057-4.116
		c1.378,0.046,1.599-0.729,1.526-1.911c-0.09-1.474,0.033-2.964,0.116-4.444c0.018-0.331,0.25-0.649,0.407-1.029
		c0.183,2.667,0.167,5.249,0.378,7.833c0.104,1.279,0.431,2.716,0.034,4.021c-0.188,0.62-0.124,0.797,0.453,0.803
		c1.782,0.016,0.902,1.048,0.518,1.607c-0.756,1.1-0.802,1.805,0.725,1.91c0.867,0.061,0.907,0.417,0.585,1.062
		c-0.209,0.42-0.477,0.83-0.583,1.277c-0.194,0.817-0.549,1.835,0.957,1.361c0.307,1.377-1.57,1.186-1.415,2.247
		c0.208,1.416,1.833,0.338,2.288,1.354c-0.483,1.003-1.038,2.155-1.708,3.547c0.698-0.206,1.087-0.321,1.553-0.458
		c0.125,1.551-1.578,1.41-2.009,2.377c0.142,0.429,0.482,0.189,0.745,0.203c0.372,0.018,0.958-0.395,1,0.322
		c0.026,0.461,0.227,1.1-0.644,1.285c-1.405,0.298-1.377,1.316-0.986,2.648c0.75-0.677,1.442-1.226,2.035-1.865
		c0.402-0.434,0.693-0.622,1.222-0.198c0.423,0.341,0.735,0.589,0.33,1.177c-0.194,0.281-0.248,0.706-0.244,1.065
		c0.006,0.624,0.409,0.968,1.001,1.1c-0.176-0.664,1.162-0.297,0.788-1.374c-0.329-0.948-0.753-1.876-1.307-2.58
		c-1.295-1.644-0.016-3.495-0.718-5.154c0.715-0.562,1.36,0.496,2.056,0.102c-1.567-4.099-1.726-4.804-1.536-6.774
		c0.729-0.474,1.152,1.291,1.595,0.415c0.509-1.006,1.146-2.336,0.292-3.453c-0.575-0.754-0.575-1.553-0.949-2.499
		c0.453,0.294,0.914,0.629,0.936,0.603c0.641-0.778-0.551-1.038-0.453-1.749c0.302-0.145,1.197,0.861,1.064-0.423
		c1.189,0.453,1.866,1.316,2.065,2.588c-0.375-1.75-2.016-2.92-2.096-4.777c-1.305-1.159-1.001-2.817-1.405-4.3
		c0.664,1.11,1.692,0.773,2.608,0.807c0.32,0.012,0.35-0.103,0.336-0.421c-0.028-0.602-0.408-0.766-0.849-0.706
		c-1.161,0.155-1.532-0.308-1.409-1.439c0.112-1.03,0.363-1.757,1.579-1.215c0.691,0.308,1.354-0.638,2.213,0.537
		c-0.57-1.887-0.773-3.327-2.34-4.006c-0.918-0.397-0.869-1.57-1.508-2.213c-0.508-0.511,0.068-0.589,0.283-0.776
		c1.296-1.128,2.583-2.269,3.924-3.341c0.547-0.437,0.957-0.959,0.606-1.548c-0.697-1.169-0.875-2.653-2.033-3.529
		c-0.527-0.398-0.896-0.844-0.939-1.495c-0.032-0.485-0.815-0.939-0.111-1.446c0.771-0.555,0.833,0.428,1.236,0.654
		c0.572,0.322,1.039,0.828,1.966,0.882c-1.062-1.784-2.436-3.314-2.544-5.694c1.005,0.683,1.402,1.711,2.408,1.898
		c-0.375-1.865-0.752-3.73-1.173-5.819c0.992,0.633,1.505,2.163,2.518,1.409c0.75-0.558-0.082-1.762-0.268-2.657
		c-0.252-1.205-1.371-1.966-1.738-3.178c-0.177-0.583-0.34-1.108-0.3-1.852c2.221,2.027,1.829-0.455,2.49-1.322
		c-2.859,0.694-1.805-1.881-2.635-2.874c2.669,1.671,2.698,1.675,3.061-1.448c0.09-0.778,0.191-1.53-0.641-2.246
		c-1.105-0.951,0.1-2.622-1.065-3.722c0.966-0.111,1.331,0.477,1.911,0.779c0.14-2.492,0.275-4.895,0.41-7.298
		c0.418,0.972,0.835,1.887,0.588,2.857c-0.138,0.539-0.023,0.884,0.583,0.829c0.833-0.075,0.316,0.548,0.476,0.809
		c0.315,0.519-0.725,1.676,0.9,1.681c0.444,0.001-0.064,0.982-0.334,1.527c-0.221,0.443-0.479,0.791-0.807,1.141
		c-0.364,0.39-0.412,0.997-0.186,1.378c0.328,0.55,0.886,0.097,1.328-0.008c0.414-0.099,1.081-0.518,1.158-0.42
		c0.54,0.685-0.432,0.797-0.557,1.222c-0.254,0.864-0.093,1.964-0.578,2.612c-0.456,0.61-0.575,1.146-0.617,1.797
		c-0.016,0.241-0.037,0.66,0.067,0.703c1.45,0.6,1.463,1.188,0.262,2.208c-0.443,0.376,0.285,0.621,0.726,0.562
		c0.653-0.088,1.244-0.606,1.958-0.282c-1.794,1.351-2.309,3.235-2.318,5.352c0.892,0.163,0.927-0.711,1.763-1.233
		c-0.681,2.914-2.631,5.078-2.525,7.962c0.836,0.337,1.202-0.924,2.163-0.99c-0.238,0.775-0.417,1.521-0.224,2.317
		c-0.626,0.007-0.173-0.646-0.559-0.721c-0.74,1.421-1.431,2.853-0.913,4.727c1.233-0.926,1.627-2.594,3.236-2.927
		c0.034,0.145,0.034,0.32,0.111,0.451c1.024,1.72-0.142,3.49-0.974,4.257c-1.184,1.091-0.824,2.521-1.93,3.601
		c1.4,0.044,2.354-0.495,3.404-1.022c-0.103,0.762-0.177,1.445-0.292,2.121c-0.086,0.509-0.192,1.015-0.93,0.592
		c-0.264-0.151-0.629-0.567-0.854,0.18c-0.251,0.839-1.248,1.478-0.988,2.42c0.17,0.617,0.971,0.25,1.482,0.254
		c0.409,0.003,0.82-0.166,1.397-0.155c-1.114,1.045-0.496,3.147-2.587,3.698c1.234,0.971,2.399,1.716,3.832,0.521
		c0.806,1.65-0.396,2.077-1.309,2.57c-0.296,0.159-0.902,0.137-0.887,0.475c0.036,0.833-1.213,1.087-0.877,1.829
		c0.333,0.734,1.194,0.323,1.801,0.316c1.302-0.015,0.869,0.945,0.664,1.372c-0.509,1.059-1.234,2.015-1.843,2.966
		c1.079,1.01,2.419,0.802,3.738,0.404c0.279,2.88-2.249,3.731-3.459,5.455c-0.234,0.333-1.083,0.331-0.591,1.073
		c0.356,0.536,0.884,0.432,1.327,0.27c0.451-0.165,1.142-0.454,1.197-0.778c0.182-1.088,0.79-1.188,1.68-1.103
		c0.832,0.079,1.045-1.085,0.962-1.119c-1.627-0.654-0.376-1.692-0.126-2.209c0.638-1.316-0.476-2.334-0.29-3.524
		c0.226-1.447-0.707-2.498-1.422-3.677c0.936,0.394,1.588,1.155,2.584,1.252c-0.828-1.352,0.822-2.692,0.269-4.202
		c1.912-0.955,0.091-1.856-0.097-2.731c-0.206-0.958-0.146-1.639,0.709-2.239c0.844-0.593,0.907-1.258-0.074-1.864
		c-0.771-0.477-1.385-1.108-1.859-2.313c1.009,0.678,1.719,1.153,2.43,1.631c0.287-2.049-0.403-3.834-1.382-5.775
		c1.611,0.57,1.834-0.089,1.908-1.382c0.102-1.814-0.875-3.614-0.032-5.418c0.2-0.428,0.368-0.87,0.659-1.283
		c0.078,1.387,0.505,2.818-0.166,4.092c-0.588,1.116,1.26,1.308,0.718,2.007c-0.725,0.935,0.233,1.823,0.185,1.944
		c-0.745,1.885,0.507,2.813,1.532,3.928c0.144,0.156-0.109,1.034-0.364,1.143c-1.862,0.791-1.046,2.634-1.784,3.862
		c0.898,0.354,1.261-0.24,1.695-0.627c0.322-0.287,0.634-0.74,1.049-0.277c0.133,0.148,0.01,0.771-0.192,0.933
		c-1.01,0.811-0.971,2.124-1.536,3.149c-1.106,2.008,1.029,1.11,1.873,1.628c-0.638,0.789-1.19,1.646-1.912,2.322
		c-0.985,0.921-0.969,3.166,0.268,3.643c0.729,0.28,1.667,0.916,2.536,0.109c0.219-0.239,0.446-0.225,0.68-0.021
		c-0.66,2.267-1.744,2.888-3.52,2.02c0.31,2.282,0.31,2.282,4.356,2.139c-0.209,1.166-0.648,1.579-2.745,1.848
		c-1.053,0.136-1.53,0.281-1.426,1.499c0.105,1.229,0.823,1.472,1.706,1.276c1.413-0.313,1.065,0.833,0.739,1.069
		c-0.673,0.487-0.829,1.762-2.017,1.482c-0.619-0.146-0.363,0.293-0.352,0.507c0.069,1.26,1.427,2.228,2.645,1.864
		c0.486-0.145,0.924-0.794,1.455-0.258c0.486,0.491,0.035,1.351-0.16,1.496c-0.465,0.35-0.909,1.036-1.687,0.778
		c-0.447-0.147-0.887-0.315-1.56-0.556c0.629,1.76,2.56,2.063,3.096,3.562c0.002,0.006,0.186-0.018,0.241-0.072
		c0.437-0.427,0.916-0.734,1.404-0.138c0.525,0.642-0.744,0.743-0.474,1.36c0.04,0.09-0.04,0.232-0.064,0.351
		c-1.183,0.972-1.825,2.268-2.183,3.717c-0.146,0.587,0.053,1.143,0.56,1.459c0.519,0.324,0.736-0.229,1.027-0.508
		c0.136-0.13,0.282-0.265,0.459-0.3c1.72-0.34,1.204-1.145,0.581-2.185c-0.374-0.623-1.386-1.271-0.479-2.228
		c0.887-0.408,1.959,0.063,2.843-0.696c-0.556-0.62-1.236-1.222-1.715-1.955c-0.651-0.998-0.608-1.84,0.762-2.33
		c1.043-0.375,2-0.995,2.93-1.472c-0.897-1.989-3.212-2.944-3.287-5.353c1.028-0.085,1.932,0.725,3.07,0.459
		c-1.12-1.593-2.2-3.129-3.352-4.769c3.505,0.133,4.619-0.983,4.048-4.514c-0.385-2.38-0.14-4.636,0.22-6.938
		c0.973,0.168,0.22,1.07,0.63,1.478c-0.191,1.461-0.68,2.834,0.267,4.362c0.446,0.72-0.357,1.988-0.415,3.073
		c-0.138,2.588-0.237,2.581,2.22,3.084c0.473,0.097,0.94,0.217,1.457,0.337c-0.258,0.537-0.541,1.113-1.111,1.126
		c-0.768,0.016-1.692-0.442-1.554,0.956c0.154,1.561-1.615,3.488,0.969,4.6c1.174,0.505,2.242,1.259,3.142,2.228
		c0.62-0.438,0.187-1.116,0.588-1.682c-0.171,2.274,0.661,3.814,2.941,4.353c-0.802-1.223-0.554-2.889-1.76-3.906
		c0.729-0.766,1.87,0.002,2.617-0.701c1.867-0.596,1.938-0.79,0.881-2.279c-0.208-0.292-0.316-0.655-0.531-0.939
		c-1.545-2.036-1.55-2.032,0.818-2.865c-1.093-0.627-1.424-1.584-1.47-2.7c0.335,0.079,0.663,0.157,0.99,0.234
		c0.625,0.427,1.244,0.558,1.841-0.05c-0.567-0.797-1.51-2.079-0.966-2.561c1.51-1.337-0.007-2.198-0.143-3.244
		c-0.031-0.238-0.225-0.447,0.154-0.526c1.866-0.387,1.38-1.893,1.435-3.098c0.064-1.416-0.339-2.874,0.424-4.536
		c0.611,1.846-0.178,3.57,0.688,5.054c0.859,1.475,1.91,2.626,3.944,2.136c-0.668-0.605-0.543-1.567-1.249-2.202
		c-0.601-0.541-1.174-1.28-0.822-2.322c0.414,0.195,0.838,0.558,1.255,0.55c0.514-0.011,1.021-0.329,1.532-0.515
		c-0.179-0.384-0.257-0.895-0.554-1.126c-0.687-0.536-0.744-1.342-1.081-2.023c0.12-0.263-0.013-0.606,0.264-0.818
		c0.312,0.189,0.622,0.381,0.935,0.566c0.31,0.183,0.626,0.148,0.81-0.145c0.216-0.347-0.183-0.481-0.314-0.722
		c-0.507-0.93-1.594-1.243-2.129-2.174c-0.409-0.711-0.849-1.305-0.324-2.229c0.542,0.406,1.169,0.705,1.535,1.198
		c0.351,0.472,0.663,0.84,1.114,0.371c0.415-0.431,0.048-0.917-0.324-1.265c-0.49-0.459-1.021-0.875-1.503-1.34
		c-0.347-0.335-0.242-0.76-0.23-1.276c0.522,0.156,0.918,0.265,1.307,0.396c0.313,0.106,0.662,0.142,0.851-0.121
		c0.25-0.35,0.068-0.697-0.261-0.926c-0.625-0.432-1.015-1.087-0.645-1.716c0.271-0.463,0.917,0.457,1.538-0.031
		c-0.226-1.077-1.252-1.899-1.348-3.188c0.515,0.217,0.991,0.416,1.484,0.623c0.028-0.176,0.107-0.342,0.058-0.405
		c-1.146-1.442,0.183-2.822,0.104-4.233c0-0.002,0.091-0.02,0.135-0.011c0.06,0.013,0.115,0.043,0.173,0.065
		c0.377,0.175,0.738,0.011,1.104-0.052c0.307,0.122,1.404-0.496,0.646,0.626c-0.601,0.886-1.177,1.507-0.046,2.584
		c0.496,0.474-0.788,1.588-0.604,2.563c0.082,0.433-0.55,1.118,0.746,1.139c0.82,0.012,0.466,1.368,0.085,2.026
		c-0.491,0.851-1.105,1.607-0.758,2.67c1.584,0.265,1.638-1.59,2.946-2.137c-0.198,2.2-1.327,3.697-2.404,5.284
		c1.234-0.085,1.125,0.605,0.626,1.449c-0.471,0.794-1.467,1.462-0.264,2.512c0.364,0.316-0.637,0.489-0.553,1.014
		c0.391,0.354,0.618-0.146,0.925-0.212c0.582-0.126,0.437-1.236,1.311-1.012c0.428,0.109,0.438,0.6,0.261,0.699
		c-0.794,0.445,0.229,2.08-1.353,1.973c-0.717-0.049-0.702,0.613-0.705,1.063c-0.006,0.889,0.683,0.408,1.051,0.407
		c0.468-0.002,0.943-0.356,1.39,0.087c-0.027,0.116-0.02,0.259-0.086,0.334c-0.404,0.458-1.66,0.317-1.299,1.172
		c0.334,0.79,1.316,0.905,2.247,0.572c0.496-0.178,1.011-0.515,1.737-0.251c-0.243,0.521-0.375,1.035-0.894,1.432
		c-0.658,0.503-3.315,0.807-0.158,1.906c0.955,0.333-0.398,1.52-0.841,1.838c-0.605,0.435-0.966,0.351-0.295,1.133
		c0.899,1.052,0.56,3.018-0.473,3.941c-0.767,0.687-1.297,2.028-1.291,3.175c1.824-1.414,3.693-2.864,5.563-4.313
		c0.132,0.077,0.265,0.154,0.396,0.231c-0.649,1.699,0.109,3.734-1.886,5.152c-1.579,1.124-2.507,2.886-3.471,4.572
		c0.807-0.648,1.598-1.19,2.267-1.856c0.401-0.4,0.931-0.597,1.291-0.455c0.389,0.152,0.149,0.764,0.104,1.169
		c-0.161,1.455-0.855,2.838-0.567,4.468c0.766-0.252,1.476-0.843,2.429-0.484c-1.023,1.015-0.942,2.521-1.74,3.62
		c-0.287,0.396-0.505,0.846-0.002,1.03c1.014,0.372,1.004,1.145,0.557,1.71c-1.131,1.426-0.466,1.885,0.912,2.23
		c0.432,0.107,0.968,0.214,1.333,0.926c-0.952,0-1.804,0-2.654,0c0.004,0.098,0.008,0.195,0.013,0.294c3.552,0,7.104,0,10.768,0
		c-0.474-1.021-1.154-2.026-0.819-3.308c0.562-0.102,1.404,0.339,1.755-0.374c0.308-0.622-0.093-1.199-0.56-1.743
		c-0.43-0.502-0.622-1.195-0.623-1.899c0-0.12-0.09-0.341-0.08-0.345c1.773-0.605,1.188-1.884,0.888-3.081
		c1.293-0.08,1.187-0.914,1.039-1.838c-0.145-0.899-0.044-2.088,0.155-2.665c0.448-1.3,0.919-2.519,0.834-3.957
		c0.901,1.604,0.595,3.351,0.605,4.997c0.009,1.411,0.207,2.54,1.41,3.371c0.733,0.507,0.462,0.896-0.202,1.175
		c-1.626,0.681-1.766,1.805-0.163,2.947c1.13,0.806-0.216,0.624-0.263,1.113c1.969-0.059,3.189,2.188,5.408,1.63
		c0.853-0.215,1.798-0.224,1.886-1.33c0.034-0.431,0.47-1.652-0.933-0.936c-0.464,0.238-1.119,0.047-0.771-0.697
		c0.521-1.116-0.291-1.162-0.951-1.381c-0.059-0.02-0.119-0.036-0.176-0.06c-1.255-0.527-3.05-0.957-2.931-2.439
		c0.091-1.129,1.994-0.427,2.969-0.963c0.232-0.128,0.541-0.116,0.852-0.176c-0.479-0.92-1.256-0.636-1.86-0.54
		c-1.27,0.201-1.723-0.757-2.242-1.504c-0.585-0.844,0.42-0.781,0.788-1.043c0.836-0.595,1.304-1.188,0.356-2.104
		c-0.409-0.396-1.263-1.129-0.762-1.396c0.521-0.276,1.574-0.518,2.325,0.098c0.996,0.815,1.786,2.021,3.859,1.844
		c-2.359-1.69-3.498-3.787-4.519-6.267c0.895,0.604,1.762,1.003,2.353,1.652c0.399,0.438,0.771,0.746,1.179,0.442
		c0.409-0.306,0.729-0.977,0.306-1.455c-1.098-1.241-0.38-3.108-1.611-4.328c-0.329-0.327-0.436-1.273,0.66-1.193
		c0.454,0.033,0.869-0.022,1.188-0.583c-1.231-0.328-1.054-1.479-1.34-2.376c-0.058-0.181,0.235-0.56,0.159-0.634
		c-0.553-0.54-1.55-1.318-0.795-1.841c0.819-0.567,1.585,0.697,2.547,1.325c-0.195-0.72,0.96-1.325-0.148-1.89
		c-0.765-0.389-1.405-0.83-1.321-1.763c0.112-1.242,1.358-0.47,1.898-0.979c0.035-1.063-0.951-1.476-1.483-2.33
		c3.075-0.302,0.892-1.63,0.529-2.571c0.553-0.41,0.941,0.227,1.495,0.093c0-0.781,0-1.57,0-2.7c0.54,1.342-0.534,3.421,1.923,2.912
		c-0.607,1.386,0.711,3.082-0.891,4.109c2.822,1.144-0.52,2.104,0.248,3.234c0.242,0.023,0.702,0.067,1.146,0.11
		c0.086,0.319-0.091,0.452-0.287,0.612c-0.817,0.669-1.516,1.353-0.051,2.095c0.495,0.25,0.287,0.548,0.029,0.868
		c-0.479,0.595-0.928,1.214-1.6,2.103c1.076-0.25,1.69-0.568,1.966-1.313c0.19-0.514,0.559-1.084,0.996-0.776
		c0.515,0.36,0.544,1.18-0.092,1.589c-0.979,0.63-1.271,1.592-1.546,2.602c-0.095,0.348-0.034,0.623,0.352,0.696
		c0.423,0.082,0.219-0.308,0.324-0.468c1.046-1.587,1.847-3.245,1.324-5.319c0.168,0.022,0.336,0.045,0.504,0.068
		c0.044,0.614,0.119,1.229,0.123,1.843c0.005,0.774-0.504,1.517,1.028,1.72c0.985,0.132-0.045,1.04-0.385,1.545
		c1.946,0.5,2.089,0.967,0.752,3.222c-0.622,1.049-1.097,1.916,0.947,2.11c-1.371,1.137-1.95,2.244-0.533,3.508
		c0.129,0.116,0.288,0.432,0.274,0.442c-1.589,1.188-0.673,2.584-0.425,3.979c0.17,0.956,0.33,1.933,0.161,2.964
		c-0.145,0.882,0.836,0.911,1.437,1.078c0.642,0.178,1.603,0.115,1.474,0.994c-0.104,0.715-0.624,1.462-1.549,1.672
		c-2.118,0.481-2.598,1.39-1.973,3.533c0.072,0.249,0.065,0.479,0.368,0.523c0.277,0.041,0.431-0.093,0.556-0.35
		c0.773-1.581,2.201-2.172,3.943-2.407c-0.233,1.86-2.437,1.925-3.072,3.406c0.409,0.32,0.814,0.011,1.225-0.197
		c0.934-0.474,1.798-0.863,1.633,0.841c-0.071,0.735,0.545,0.523,0.917,0.524c5.753,0.013,11.506,0.014,17.258,0.005
		c1.259-0.002,2.006-0.745,1.393-1.837c-0.477-0.847,0.547-2.741-1.574-2.54c0.025-0.683,0.024-1.368,0.087-2.047
		c0.039-0.416,0.467-0.742,0.321-1.23c-0.606-0.4-1.617,0.473-2.014-0.617c1.637-0.317-1.218-3.424,1.918-2.803
		c0.007-0.587-1.729-1.102,0.031-1.772c0.554-0.212,1.298-2.142,0.503-3.464c-0.25-0.417-0.493-0.838-0.937-1.592
		c2.618,1.244,2.313-0.425,2.512-1.826c0.18-1.274-0.665-2.534,0.161-4.054c0.198,1.062,0.442,1.889,0.492,2.726
		c0.131,2.203,0.572,4.292,1.354,6.382c0.289,0.772-0.654,2.004,0.915,2.366c0.165-0.09,0.327-0.083,0.484,0.019
		c0.484,0.552,0.251,1.256,0.376,1.927c0.763-1.693,0.988-1.723,2.151-0.44c-0.268-0.795-1.179-0.958-1.902-1.376
		C336.45,157.616,337.466,157.861,337.769,157.386z"/>
	<path fill-rule="evenodd" clip-rule="evenodd" fill="#FEFEFE" d="M0.371,206.36c182.112,0,364.223,0,546.334,0
		c-0.081,0.114,0.188,0.387-0.186,0.375c-0.494-0.017-0.99-0.004-1.484-0.004c-180.998,0-361.996,0-542.994-0.023
		C1.498,206.708,0.783,207.137,0.371,206.36z"/>
	<path fill-rule="evenodd" clip-rule="evenodd" fill="#F5F5F5" d="M208.594,147.721c-1.045,1.08,0.533,1.331,0.683,2.051
		c0.071,0.343,0.756,0.607,0.492,1.055c-0.278,0.471-1.013,0.898-1.387,0.703c-2.016-1.056-3.428,0.228-4.969,1.09
		c-0.428,0.239-0.866,0.497-1.449,0.162c1.689-2.002,4.726-2.449,5.817-5.08C208.052,147.707,208.323,147.714,208.594,147.721z"/>
	<path fill-rule="evenodd" clip-rule="evenodd" fill="#F5F5F5" d="M198.121,110.234c0.002,0.982,0.043,1.966-0.005,2.945
		c-0.048,0.995-0.217,1.949-1.282,2.457c-0.612,0.292-0.8,0.865-0.83,1.531c-0.013,0.29,0.751,0.886-0.204,0.856
		c-0.411-0.012-0.959-0.246-0.752-0.957c0.407-1.399,0.74-2.855,1.957-3.803c1.017-0.791,1.192-1.625,0.458-2.667
		C197.683,110.477,197.902,110.356,198.121,110.234z"/>
	<path fill-rule="evenodd" clip-rule="evenodd" fill="#E1E1E1" d="M471.345,136.526c0.279,0.382,0.575,0.751,0.833,1.146
		c0.625,0.959,1.092,1.887-0.656,2.02c0.057,1.021,2.096,0.729,1.29,2.003c-0.398,0.63-1.663-0.011-2.32,0.878
		c1.255-1.978-0.223-4.06,0.497-5.981C471.071,136.369,471.158,136.175,471.345,136.526z"/>
	<path fill-rule="evenodd" clip-rule="evenodd" fill="#ECECEC" d="M218.97,142.617c1.091,1.787,2.182,3.573,3.335,5.464
		c-1.113-0.062-2.46,0.497-2.063-1.621c0.085-0.457-1.144-0.828-1.242-1.653C218.991,144.076,218.98,143.347,218.97,142.617z"/>
	<path fill-rule="evenodd" clip-rule="evenodd" fill="#2C2C2C" d="M271.67,114.365c-0.345,0.504-0.712,0.55-1.104,0.052
		c1.198-0.082,0.803-1.107,0.65-1.533c-0.715-1.996,0.15-3.878,0.135-6.358C272.374,109.479,271.324,111.943,271.67,114.365z"/>
	<path fill-rule="evenodd" clip-rule="evenodd" fill="#181818" d="M19.552,106.649c-1.344-2.487-0.396-4.998-0.072-7.502
		c0.503,2.491,0.044,4.985,0.023,7.483C19.511,106.635,19.552,106.649,19.552,106.649z"/>
	<path fill-rule="evenodd" clip-rule="evenodd" fill="#5D5D5D" d="M170.409,149.205c-0.384,0.002-0.768,0.004-1.152,0.006
		c0-1.451,0-2.902,0-4.591c0.778,1.08,0.837,1.988,0.471,2.97c-0.277,0.741-0.104,1.27,0.783,1.371
		c0.017,0.002,0.049,0.094,0.033,0.12C170.514,149.131,170.456,149.165,170.409,149.205z"/>
	<path fill-rule="evenodd" clip-rule="evenodd" fill="#474747" d="M104.218,114.706c-0.506-0.198-0.259-0.809-0.601-1.097
		c0.123-1.265,0.246-2.531,0.372-3.823c0.483,0.078,1.271,0.28,0.928,0.715C103.868,111.831,104.481,113.32,104.218,114.706z"/>
	<path fill-rule="evenodd" clip-rule="evenodd" fill="#8D8D8D" d="M142.544,135.491c-1.004,1.271-2.008,1.101-3.014,0.002
		C140.535,135.492,141.54,135.492,142.544,135.491z"/>
	<path fill-rule="evenodd" clip-rule="evenodd" fill="#5D5D5D" d="M250.832,136.982c-0.662-0.3-0.003-1.163-0.63-1.478
		c0.166-1.201,0.331-2.402,0.523-3.798C251.047,133.585,250.928,135.284,250.832,136.982z"/>
	<path fill-rule="evenodd" clip-rule="evenodd" fill="#3E3E3E" d="M260.191,154.812c-0.581,1.321-1.756,0.426-2.617,0.701
		c-0.384-0.396-0.221-0.699,0.239-0.729C258.603,154.733,259.398,154.796,260.191,154.812z"/>
	<path fill-rule="evenodd" clip-rule="evenodd" fill="#3F3F3F" d="M165.158,147.707c0.001-0.125,0.001-0.251,0.002-0.376
		c0.685-0.146,0.747-1.341,1.678-1.012c0.131,0.047,0.256,0.481,0.187,0.66C166.683,147.875,165.836,147.598,165.158,147.707z"/>
	<path fill-rule="evenodd" clip-rule="evenodd" fill="#393939" d="M127.617,132.896c-0.46,0.422-0.166,1.014-0.338,1.501
		c-0.916-1.437,0.09-2.787,0.207-4.183C127.758,131.099,127.753,131.994,127.617,132.896z"/>
	<path fill-rule="evenodd" clip-rule="evenodd" fill="#474747" d="M469.855,135.479l-0.151-0.011l-0.15,0.02
		c0-1.381,0-2.761,0-4.142C469.902,132.719,470.283,134.082,469.855,135.479z"/>
	<path fill-rule="evenodd" clip-rule="evenodd" fill="#9F9F9F" d="M335.825,158.492l-0.18,0.016l-0.156-0.091
		c0.156-1.678,1.485-0.763,2.28-1.031c-0.021,0.701-0.805,0.619-1.083,1.056C336.414,158.698,336.126,158.717,335.825,158.492z"/>
	<path fill-rule="evenodd" clip-rule="evenodd" fill="#191919" d="M243.081,142.888c-0.227,0.007-0.453,0.015-0.68,0.021
		c0.617-0.427,0.951-1.048,1.166-1.768C244.584,142.621,244.584,142.621,243.081,142.888z"/>
	<path fill-rule="evenodd" clip-rule="evenodd" fill="#6A6A6A" d="M91.24,80.208c-0.205,0-0.409,0.001-0.614,0.001
		c-0.043-1.135-0.209-2.272,0.141-3.95C90.966,77.928,91.103,79.068,91.24,80.208z"/>
	<path fill-rule="evenodd" clip-rule="evenodd" fill="#606060" d="M267.602,130.979c-0.007,0.299,0.152,0.651-0.264,0.818
		c0.075-0.929-1.617-0.879-1.03-2.058C267.156,129.62,267.187,130.518,267.602,130.979z"/>
	<path fill-rule="evenodd" clip-rule="evenodd" fill="#696969" d="M518.885,129.146c-0.277-0.02-0.554-0.04-0.83-0.061
		c0-0.952,0-1.903,0-2.855c0.143-0.012,0.284-0.023,0.427-0.035C518.617,127.179,518.75,128.163,518.885,129.146z"/>
	<path fill-rule="evenodd" clip-rule="evenodd" fill="#BFBFBF" d="M6.585,156.236c0.039,0.177,0.097,0.352,0.111,0.53
		c0.042,0.529,1.438,0.74,0.552,1.315c-0.76,0.493-0.903-0.632-1.251-1.115C6.193,156.724,6.39,156.48,6.585,156.236z"/>
	<path fill-rule="evenodd" clip-rule="evenodd" fill="#B5B5B5" d="M262.72,146.212c0.256,0.54,0.009,0.765-0.513,0.776
		c-0.573,0.012-1.221,0.128-1.328-0.727C261.493,146.245,262.106,146.229,262.72,146.212z"/>
	<path fill-rule="evenodd" clip-rule="evenodd" fill="#424242" d="M16.022,126.517c-0.249,0.144-0.497,0.287-0.746,0.431
		c0.161-0.923-1.019-0.928-1.301-1.924C15.008,125.328,15.547,125.873,16.022,126.517z"/>
	<path fill-rule="evenodd" clip-rule="evenodd" fill="#FDFDFD" d="M104.147,134.275c-0.135-1.194,0.021-1.788,1.146-1.882
		c0.939-0.079,1.496-1.004,1.855-1.697c0.218-0.421-0.76-0.751-1.324-0.766c-1.529-0.039-1.31-1.163-1.074-1.96
		c0.336-1.137,1.471-1.511,2.532-1.715c0.146-0.029,0.558,0.753,0.664,1.203c0.172,0.73,0.174,1.503,1.263,1.352
		c0.291-0.041,0.404,0.109,0.364,0.436c-0.082,0.673-0.366,1.614,0.906,0.74c0.341-0.235,0.491,0.153,0.499,0.499
		c0.007,0.307-0.053,0.657,0.073,0.91c0.61,1.223,0.365,1.91-1.046,2.448c-0.856,0.327-1.763,0.518-2.639,0.794
		c-0.35,0.11-0.775,0.201-0.996,0.451c-0.367,0.416-0.108,1.603-1.248,0.975C104.327,135.625,103.824,134.977,104.147,134.275z"/>
	<path fill-rule="evenodd" clip-rule="evenodd" fill="#FBFBFB" d="M65.064,131.153c1.042,0.666,2.293,1.032,2.443,2.565
		c0.041,0.419,0.615,0.058,0.958,0.029c0.816-0.068,1.539,0.079,1.737,1.078c0.084,0.427,0.268,0.917,0.836,0.597
		c0.317-0.179,0.63-0.594,0.873-0.133c0.226,0.429,0.127,1.001-0.432,1.243c-0.387,0.168-0.522,0.874-1.198,0.476
		c-0.677-0.399-0.994-1.822-1.778-1.299c-0.531,0.354,0.77,1.355,0.619,2.251c-1.274,0.383-2.519-0.233-3.844-0.061
		c-1.004,0.131-2.123-0.694-1.426-2.19C64.523,134.266,64.667,132.68,65.064,131.153z"/>
	<path fill-rule="evenodd" clip-rule="evenodd" fill="#F9F9F9" d="M100.017,126.97c-2.496,0.266-3.381,2.597-5.309,3.967
		c0.036-2.121,1.467-3,2.574-3.968c0.64-0.559,1.211-0.941,1.05-1.863c-0.168-0.959,0.337-1.747,1.021-2.158
		c0.601-0.36,1.423-0.271,1.707,0.762c0.109,0.395,0.463,0.057,0.727-0.076c0.712-0.358,1.16,0.168,1.568,0.602
		c0.476,0.504,0.087,0.857-0.294,1.222c-0.775,0.741,0.141,1.779-0.642,2.794c-0.718,0.932-0.972,0.944-1.927,0.661
		C99.119,128.504,100.012,127.741,100.017,126.97z"/>
	<path fill-rule="evenodd" clip-rule="evenodd" fill="#FBFBFB" d="M101.459,135.329c1.022,2.352,1.285,4.82,1.116,7.417
		c-1.594-0.283-2.852-1.591-4.355-2.41c-0.294-0.161-0.685-0.402-0.327-0.837c0.582-0.706,0.38-1.69,0.829-2.391
		c0.315-0.493,0.108-2.046,1.577-1.017C100.926,136.532,100.84,135.178,101.459,135.329z"/>
	<path fill-rule="evenodd" clip-rule="evenodd" fill="#F9F9F9" d="M429.537,136.287c0.594,2.168,0.038,3.037-1.876,3.216
		c-0.707,0.065-1.394,0.352-2.102,0.541c-0.349-0.373,0.452-0.761-0.063-1.176c-0.628,0.517-1.269,1.044-2.002,1.647
		c-0.366-1.47-0.838-2.673-0.246-4.158c0.43-1.078,1.132-1.391,1.976-1.45c1.04-0.071,0.775,1.036,1.064,1.622
		c0.665-0.013,0.425-0.643,0.737-1.316c0.266,1.265,0.456,2.168,0.659,3.137C428.798,138.099,428.593,136.666,429.537,136.287z"/>
	<path fill-rule="evenodd" clip-rule="evenodd" fill="#FAFAFA" d="M399.828,155.17c1.224,2.401,0.71,2.831-3.594,3.608
		c0.686-1.759,1.427-3.536,3.049-4.297c0.926-0.434,1.488-1.088,2.246-1.588c0.849-0.561,1.433,0.286,1.854,0.939
		c0.481,0.745,0.307,1.828,1.22,2.377c0.287,0.173,0.117,0.371-0.067,0.572c-0.417,0.453-0.893,0.385-1.35,0.158
		C402.216,156.458,401.268,155.934,399.828,155.17z"/>
	<path fill-rule="evenodd" clip-rule="evenodd" fill="#F8F8F8" d="M111.651,125.604c-2.446,0.476-3.89-1.264-5.807-1.528
		c-0.815-0.113-0.467-0.888-0.119-1.301c0.599-0.714,0.947-1.546,1.368-2.39c-2.72-0.247,0.012-1.48-0.44-2.169
		C107.904,120.942,110.316,122.89,111.651,125.604z"/>
	<path fill-rule="evenodd" clip-rule="evenodd" fill="#FBFBFB" d="M244.683,163.071c-0.089,1.23,0.974,1.928,1.36,2.938
		c0.146,0.382,1.125,0.279,0.66,0.972c-0.283,0.423-0.68,0.885-1.345,0.784c-0.731-0.11-1.275-0.123-1.149,0.965
		c0.097,0.84-0.915,0.572-1.008,0.39c-0.432-0.849-1.872-1.146-1.026-2.783c0.53-1.026,1.036-2.101,1.646-3.112
		c0.276-0.459,0.564-0.32,0.894-0.112C244.718,163.115,244.683,163.071,244.683,163.071z"/>
	<path fill-rule="evenodd" clip-rule="evenodd" fill="#FAFAFA" d="M134.513,153.358c0.551-2.774,0.551-2.774-0.779-3.176
		c1.612-1.765,3.34-1.417,4.739,0.992c0.422,0.727,0.737,1.516,1.23,2.545C137.841,153.461,136.208,153.039,134.513,153.358z"/>
	<path fill-rule="evenodd" clip-rule="evenodd" fill="#F7F7F7" d="M169.58,153.736c0.096,1.357-1.124,2.917-2.23,2.931
		c-0.377,0.005-0.406,0.148-0.359,0.394c0.275,1.434-0.97,1.139-1.646,1.357c-0.412,0.133-1.211,0.413-1.325-0.439
		c-0.082-0.613-0.081-1.125,0.836-1.512c0.873-0.368,1.617-1.409,2.062-2.327c0.49-1.009,1.336-0.688,2.022-0.92
		C169.4,153.065,169.51,153.528,169.58,153.736z"/>
	<path fill-rule="evenodd" clip-rule="evenodd" fill="#F6F6F6" d="M152.698,136.115c1.533-3.004,3.313-5.801,6.051-7.964
		c0.076,0.312,0.295,0.756,0.19,0.855c-1.639,1.545,0.034,2.93,0.176,4.377c0.04,0.411,0.601,0.922-0.306,1.104
		c-0.792,0.158-0.753-0.283-0.763-0.834c-0.008-0.511,0.325-1.293-0.232-1.478c-0.73-0.241-1.607,0.315-1.883,0.875
		C155.217,134.505,153.582,134.885,152.698,136.115z"/>
	<path fill-rule="evenodd" clip-rule="evenodd" fill="#F6F6F6" d="M100.987,146.954c1.283-0.15,1.539,0.436,1.101,1.528
		c-0.11,0.275-0.606,0.463-0.108,0.871c1.345,1.103,1.112,1.897-0.497,2.461c-0.458,0.161-0.528,1.471-1.227,0.741
		c-0.534-0.558-1.235-1.287-1.06-2.331c0.192-1.142,0.698-2.159,1.095-3.223C100.506,146.754,100.74,146.757,100.987,146.954z"/>
	<path fill-rule="evenodd" clip-rule="evenodd" fill="#F6F6F6" d="M34.883,63.586c1.821,0.063,2.412,0.979,2.777,2.121
		c0.281,0.877-0.115,1.647-0.429,2.409c-0.154,0.376-0.466,0.095-0.752,0.044c-0.875-0.155-1.442-0.765-2.021-1.305
		c-0.497-0.464-1.864-1.003-0.083-1.759C34.876,64.884,34.59,63.72,34.883,63.586z"/>
	<path fill-rule="evenodd" clip-rule="evenodd" fill="#F4F4F4" d="M24.044,142.611c0.5,0.953,1.016,1.898,1.498,2.86
		c0.462,0.925-0.128,1.534-0.77,1.996c-1.229,0.883-2.616,1.567-3.444,3.405C21.208,147.546,24.527,145.749,24.044,142.611z"/>
	<path fill-rule="evenodd" clip-rule="evenodd" fill="#F6F6F6" d="M13.551,143.056c0.133,1.604,1.133,2.494,1.593,3.689
		c0.292,0.76,0.19,1.373-0.198,1.826c-0.774,0.904-0.671-0.372-1.033-0.5c-0.318-0.112-0.728,0.058-1.069-0.019
		c-1.208-0.271-1.697-0.987-1.072-2.15C12.246,145.021,12.83,144.198,13.551,143.056z"/>
	<path fill-rule="evenodd" clip-rule="evenodd" fill="#F5F5F5" d="M185.954,154.136c-3.33,0.781-4.623-2.025-6.721-2.853
		c-1.007-0.397-1.428-3.446-0.632-4.768c-0.495,1.999,2.807,1.944,1.095,4.205c1.409-0.462,2.108-0.004,2.505,1.135
		C182.732,153.379,184.421,153.14,185.954,154.136z"/>
	<path fill-rule="evenodd" clip-rule="evenodd" fill="#F8F8F8" d="M163.38,169.795c0.796-0.504,0.501-1.549,1.396-2.177
		c1.44-1.011,2.51-1.124,3.548,0.206c0.456,0.582,0.205,0.975-0.34,1.337C166.577,170.095,165.116,170.575,163.38,169.795z"/>
	<path fill-rule="evenodd" clip-rule="evenodd" fill="#F4F4F4" d="M265.563,146.229c0.451,0.92,0.686,1.854,1.445,2.447
		c0.917,0.717,0.442,1.502,0.151,2.269c-0.156,0.411-0.687,0.623-0.79,0.184c-0.208-0.888-0.754-0.466-1.199-0.507
		c-1.467-0.138-1.901-0.984-1.114-2.211C264.51,147.704,265.009,147.026,265.563,146.229z"/>
	<path fill-rule="evenodd" clip-rule="evenodd" fill="#F6F6F6" d="M78.689,130.053c0.409-0.423-0.024-1.678,0.992-1.372
		c1.231,0.371,2.9,0.737,3.164,2.08c0.12,0.607-1.549,1.347-2.65,1.313C79.008,132.039,78.837,131.032,78.689,130.053z"/>
	<path fill-rule="evenodd" clip-rule="evenodd" fill="#E9E9E9" d="M456.691,155.732c-1.417-0.144-2.713-0.104-2.954,1.745
		c-0.095,0.731-0.793,0.618-1.335,0.597c-0.287-0.012-0.598,0.029-0.717-0.385c-0.23-0.803,0.51-0.7,0.854-0.916
		c0.786-0.496,0.76-1.562,1.407-2.038c0.498-0.365-0.085-1.368,0.831-1.255c0.774,0.096,1.312,0.595,1.575,1.354
		C456.445,155.104,456.553,155.369,456.691,155.732z"/>
	<path fill-rule="evenodd" clip-rule="evenodd" fill="#FAFAFA" d="M183.533,160.867c0.516,0.46,1.194,0.052,1.81,0.363
		c-0.115,1.284-0.586,2.827,2.099,2.913c-2.018,0.851-3.394,0.256-4.345-0.632c-0.678-0.633-0.28-1.845,0.437-2.65l-0.159,0.061
		L183.533,160.867z"/>
	<path fill-rule="evenodd" clip-rule="evenodd" fill="#F5F5F5" d="M132.642,151.77c-0.552,0.033-0.8,0.096-1.027,0.053
		c-1.174-0.219-2.754-0.309-2.876-1.631c-0.062-0.673,1.285-1.619,2.575-1.695C131.344,149.638,131.949,150.617,132.642,151.77z"/>
	<path fill-rule="evenodd" clip-rule="evenodd" fill="#F1F1F1" d="M81.723,147.081c-0.305-1.158,0.212-1.63,1.015-1.484
		c0.894,0.163,0.361,1.455,1.146,1.904c0.076,0.043-0.675,0.515-1.13,0.579c-1.876,0.265-3.224-0.59-3.616-2.408
		C79.753,146.594,81.187,145.564,81.723,147.081z"/>
	<path fill-rule="evenodd" clip-rule="evenodd" fill="#F2F2F2" d="M255.065,165.553c-1.123-0.591-2.22,2.026-3.368,0.084
		c-0.535-0.904,0.402-1.686,0.802-2.479C253.229,164.052,255.004,163.659,255.065,165.553z"/>
	<path fill-rule="evenodd" clip-rule="evenodd" fill="#F3F3F3" d="M51.617,106.096c0.324,0.129,0.881,0.5,0.345,0.64
		c-1.628,0.426-3.071,0.809-3.546,2.769c-0.14,0.575-1.038,0.357-1.811,0.175c0.982-1.385,1.735-2.734,3.108-3.571
		C50.345,105.701,50.979,105.708,51.617,106.096z"/>
	<path fill-rule="evenodd" clip-rule="evenodd" fill="#F5F5F5" d="M411.286,152.611c1.362-0.181,2.555,0.27,2.81-1.285
		c0.058-0.35,0.851-0.723,1.426-0.397c0.523,0.297,0.827,0.883,0.628,1.411c-0.251,0.661-0.657,1.437-1.548,1.33
		C413.602,153.551,412.559,153.456,411.286,152.611z"/>
	<path fill-rule="evenodd" clip-rule="evenodd" fill="#ECECEC" d="M64.613,146.879c1.555,0.449,2.565,1.562,3.278,3.032
		c0.179,0.368,0.676,0.092,0.708-0.374c0.046-0.677,0.504-0.799,1.017-0.769c0.311,0.019,0.558,0.281,0.601,0.612
		c0.082,0.635-0.47,0.781-0.864,1.038c-1.036,0.674-1.999,0.667-2.507-0.577c-0.315-0.773-0.95-1.091-1.526-1.49
		C64.666,147.897,64.404,147.396,64.613,146.879z"/>
	<path fill-rule="evenodd" clip-rule="evenodd" fill="#F4F4F4" d="M12.887,136.785c0.271-0.005,2.683,2.794,2.634,3.071
		c-0.021,0.114-0.073,0.236-0.147,0.323c-0.258,0.3-0.665,0.237-0.816,0.025c-0.673-0.942-2.395-0.496-2.611-2.007
		c-0.083-0.575,0.355-0.868,0.644-1.241C12.655,136.873,12.785,136.839,12.887,136.785z"/>
	<path fill-rule="evenodd" clip-rule="evenodd" fill="#F0F0F0" d="M384.925,127.449c-0.04,0.787-0.277,1.485-0.898,1.943
		c-0.764,0.563-0.432-0.851-1.147-0.672c-0.548,0.138-0.313-0.27-0.142-0.5c0.686-0.928-0.25-2.673,0.823-2.965
		C384.445,125.015,384.831,126.463,384.925,127.449z"/>
	<path fill-rule="evenodd" clip-rule="evenodd" fill="#F5F5F5" d="M106.717,142.195c-0.912,0.072-1.431-0.276-1.455-1.221
		c-0.027-1.081,0.782-0.65,1.302-0.687c0.373-0.025,0.692-0.194,1.021-0.271c0.533-0.123,1.129,0.236,1.354,0.685
		c0.21,0.419-0.267,0.84-0.655,1.025C107.798,141.959,107.243,142.046,106.717,142.195z"/>
	<path fill-rule="evenodd" clip-rule="evenodd" fill="#F0F0F0" d="M135.686,161.706c-0.244-0.083-1.496,0.266-1.567-0.762
		c-0.074-1.063,1.234-1.01,1.994-1.358c0.248,0.86,1.568-0.492,1.567,0.722C137.68,161.2,137.429,162.047,135.686,161.706z"/>
	<path fill-rule="evenodd" clip-rule="evenodd" fill="#EEEEEE" d="M205.505,163.019c0.235,0.733,0.458,1.376,1.463,1.664
		c-1.849,0.821-2.455,2.845-4.541,3.108C203.256,165.997,204.875,164.842,205.505,163.019z"/>
	<path fill-rule="evenodd" clip-rule="evenodd" fill="#EEEEEE" d="M265.124,140.099c0.632,1.298,1.833,1.911,2.439,2.979
		c0.301,0.532-0.319,0.694-0.77,0.461c-0.751-0.391-1.42-0.895-2.298-1.076c-0.472-0.098-0.684-0.738-0.425-1.22
		C264.283,140.846,264.69,140.554,265.124,140.099z"/>
	<path fill-rule="evenodd" clip-rule="evenodd" fill="#F4F4F4" d="M13.145,162.555c-0.618-1.267-2.444-1.14-2.192-2.538
		c0.137-0.763,1.409-1.154,2.183-0.655C14.388,160.168,13.476,161.221,13.145,162.555z"/>
	<path fill-rule="evenodd" clip-rule="evenodd" fill="#EDEDED" d="M158.919,139.236c-0.88,0.717-1.813,1.176-2.183,2.068
		c-0.333,0.806-0.887,0.561-1.34,0.423c-0.346-0.104-0.814-0.489-0.852-0.795c-0.093-0.756,0.652-0.405,1.014-0.587
		c0.318-0.161,0.79-0.355,0.857-0.621C156.909,137.789,157.924,139.179,158.919,139.236z"/>
	<path fill-rule="evenodd" clip-rule="evenodd" fill="#F3F3F3" d="M484.47,160.953c-0.719,1.924-2.683,1.316-4.037,1.974
		c-0.312,0.151-0.823-0.017-1.058,0.182c-0.408,0.344-0.861,0.989-1.206,0.283c-0.304-0.621,0.569-0.771,1.049-0.964
		C480.905,161.753,482.587,161.057,484.47,160.953z"/>
	<path fill-rule="evenodd" clip-rule="evenodd" fill="#EFEFEF" d="M22.162,156.613c0.67-2.39,2.331-3.79,3.482-5.726
		c0.554,2.006,0.487,1.916-0.891,2.932C23.814,154.512,23.598,155.933,22.162,156.613z"/>
	<path fill-rule="evenodd" clip-rule="evenodd" fill="#F5F5F5" d="M127.738,161.573c1.861-0.185,2.979,0.927,3.918,2.223
		c0.409,0.563,0.176,1.084-0.475,1.511c-0.585,0.384-0.894,0.168-1.243-0.226c-0.118-0.134-0.305-0.413-0.283-0.435
		c2.012-1.863-0.572-1.699-1.086-2.424C128.375,161.948,128.021,161.786,127.738,161.573z"/>
	<path fill-rule="evenodd" clip-rule="evenodd" fill="#F1F1F1" d="M223.692,130.604c-0.423-0.134-0.547-0.59-1.044-0.762
		c-1.334-0.462-1.45-1.986-0.241-2.681c0.242-0.139,1.035-0.028,1.334,0.665C224.136,128.737,224.213,129.164,223.692,130.604z"/>
	<path fill-rule="evenodd" clip-rule="evenodd" fill="#EFEFEF" d="M4.619,169.428c0.895-0.204,1.135-0.764,1.492-1.275
		c0.35-0.502,0.974-0.961,1.768-0.536c0.336,0.18,0.816,0.321,0.567,0.739c-0.306,0.513-0.605,1.108-1.226,1.359
		C6.415,170.041,5.658,169.761,4.619,169.428z"/>
	<path fill-rule="evenodd" clip-rule="evenodd" fill="#E7E7E7" d="M254.645,157.406c1.842,1.054-0.061,2.359,0.212,3.534
		c0.043,0.188-0.542,0.138-0.74-0.105c-0.38-0.467-0.711-0.974-1.06-1.467c-0.231-0.326-0.693-0.624-0.294-1.085
		c0.427-0.494,0.541,0.207,0.833,0.271C254.603,158.771,253.964,157.477,254.645,157.406z"/>
	<path fill-rule="evenodd" clip-rule="evenodd" fill="#E3E3E3" d="M335.825,158.492c0.287-0.017,0.574-0.034,0.861-0.051
		c1.147,0.141,1.838,0.944,2.455,1.789c0.094,0.128,0.563,0.622-0.025,0.869c-0.33,0.139-0.603,0.005-0.764-0.303
		c-0.11-0.211-0.169-0.448-0.266-0.667c-0.176-0.393-0.414-0.931-0.872-0.742c-0.49,0.203-0.515,0.789-0.272,1.278
		c0.128,0.259,0.328,0.481,0.594,0.858C335.236,161.304,336.017,159.643,335.825,158.492z"/>
	<path fill-rule="evenodd" clip-rule="evenodd" fill="#EFEFEF" d="M95.702,134.504c0.312-1.741,1.224-2.757,2.646-3.394
		c0.375-0.168,0.674-0.271,0.956,0.107c0.29,0.39,0.159,0.684-0.225,0.896C97.92,132.753,97.225,134.02,95.702,134.504z"/>
	<path fill-rule="evenodd" clip-rule="evenodd" fill="#EFEFEF" d="M181.393,156.001c-0.458,0.424-0.887,0.734-1.472,0.479
		c-0.784-0.34-2.172-0.21-2.033-1.363c0.09-0.747,1.482-0.58,2.235-0.866C180.861,153.97,180.529,155.646,181.393,156.001z"/>
	<path fill-rule="evenodd" clip-rule="evenodd" fill="#F8F8F8" d="M116.017,142.658c0.657,0.923,0.694,2.2,2.262,2.621
		c-1.092,0.444-2.205-0.235-2.737,0.896c-0.103,0.218-0.602,0.005-0.634-0.523C114.837,144.503,115.068,143.494,116.017,142.658z"/>
	<path fill-rule="evenodd" clip-rule="evenodd" fill="#E8E8E8" d="M164.754,161.022c0.66-1.701,2.051-1.52,3.332-1.452
		c0.249,0.013,0.655,0.484,0.669,0.761c0.025,0.482-0.435,0.68-0.894,0.688C166.888,161.033,165.913,161.022,164.754,161.022z"/>
	<path fill-rule="evenodd" clip-rule="evenodd" fill="#F3F3F3" d="M124.49,144.969c0.397,1.757,1.473,3.238,2.24,4.845
		c-1.68-1.223-4.246-2.092-2.204-4.814C124.52,144.993,124.49,144.969,124.49,144.969z"/>
	<path fill-rule="evenodd" clip-rule="evenodd" fill="#E5E5E5" d="M430.024,117.9c2.409,0.209,2.692,1.885,2.927,3.577
		C431.648,120.936,431.648,120.936,430.024,117.9z"/>
	<path fill-rule="evenodd" clip-rule="evenodd" fill="#EDEDED" d="M12.169,155.908c0.549-0.502,1.401-0.432,1.622-1.327
		c0.151-0.615,1.064-0.891,1.489-0.326c0.351,0.467,0.246,1.34-0.38,1.757C14.058,156.574,13.143,156.77,12.169,155.908z"/>
	<path fill-rule="evenodd" clip-rule="evenodd" fill="#EBEBEB" d="M490.774,139.681c-1.265-0.891-1.664-2.44-2.656-3.502
		c-0.075-0.082,0.11-0.434,0.214-0.64c0.023-0.046,0.3-0.042,0.317,0c0.476,1.113,2.459,1.062,2.148,2.785
		C490.725,138.726,491.186,139.11,490.774,139.681z"/>
	<path fill-rule="evenodd" clip-rule="evenodd" fill="#E8E8E8" d="M265.583,158.14c-0.394-0.103-1.012,0.211-1.155-0.509
		c-0.141-0.711,0.412-0.565,0.795-0.651c0.165-0.037,0.375-0.114,0.455-0.242c0.39-0.624,0.869-1.05,1.633-0.714
		c0.311,0.137,0.321,0.49,0.154,0.792C267.056,157.552,266.695,158.362,265.583,158.14z"/>
	<path fill-rule="evenodd" clip-rule="evenodd" fill="#E6E6E6" d="M257.08,169.705c0.464-0.554,1.018-0.742,1.278-1.331
		c0.262-0.595,1.003-0.593,1.642-0.361c0.282,0.102,0.638,0.111,0.626,0.526c-0.019,0.646-0.679,0.875-1.027,1.178
		C258.934,170.295,258.026,170.068,257.08,169.705z"/>
	<path fill-rule="evenodd" clip-rule="evenodd" fill="#E2E2E2" d="M360.798,154.353c-0.358-1.711,1.283-2.198,1.631-3.442
		C363.402,153.398,363.271,153.677,360.798,154.353z"/>
	<path fill-rule="evenodd" clip-rule="evenodd" fill="#EAEAEA" d="M442.469,126.901c-0.344,0.807-1.054,1.304-1.946,1.502
		c-0.455,0.101-0.626-0.305-0.62-0.715c0.019-1.23,1.193-1.413,1.917-1.95C442.003,125.603,442.356,126.331,442.469,126.901z"/>
	<path fill-rule="evenodd" clip-rule="evenodd" fill="#F3F3F3" d="M403.849,148.225c-0.172,1.307,0.215,2.126,0.777,2.868
		c0.286,0.377,0.21,0.666-0.109,0.935c-0.294,0.247-0.508,0.08-0.791-0.106C402.284,150.969,402.232,150.176,403.849,148.225z"/>
	<path fill-rule="evenodd" clip-rule="evenodd" fill="#F1F1F1" d="M167.38,163.77c0.053,0.556-0.079,0.952-0.719,1.078
		c-0.712,0.14-1.389,0.502-2.145,0.283c-0.052-0.015-0.131-0.084-0.127-0.117c0.035-0.239,0.062-0.673,0.14-0.684
		c1.052-0.138,1.534-1.104,2.346-1.529C167.19,162.637,167.463,163.295,167.38,163.77z"/>
	<path fill-rule="evenodd" clip-rule="evenodd" fill="#F0F0F0" d="M183.533,160.861c-0.466,0.149-0.923,0.334-1.399,0.438
		c-0.623,0.137-1.553,0.501-1.649-0.407c-0.074-0.699,0.495-1.478,1.449-1.622c0.892-0.135,1.265,0.125,1.031,1.084
		c-0.075,0.307,0.178,0.561,0.568,0.514C183.533,160.867,183.533,160.861,183.533,160.861z"/>
	<path fill-rule="evenodd" clip-rule="evenodd" fill="#DCDCDC" d="M529.078,165.571c0.21,2.223-0.589,2.998-3.976,4.005
		C525.926,167.759,528.517,167.699,529.078,165.571z"/>
	<path fill-rule="evenodd" clip-rule="evenodd" fill="#F7F7F7" d="M265.185,163.057c-0.774-0.511-1.513-0.999-2.41-1.592
		c0.97-0.568,1.778-1.24,2.729-0.443C266.376,161.754,265.395,162.34,265.185,163.057z"/>
	<path fill-rule="evenodd" clip-rule="evenodd" fill="#E8E8E8" d="M117.198,134.441c0.334,1.417,0.492,2.995,2.191,3.608
		c0.238,0.086,0.278,0.386,0.146,0.64c-0.128,0.249-0.325,0.332-0.604,0.266c-0.564-0.135-2.719-3.187-2.576-3.774
		C116.432,134.86,116.625,134.476,117.198,134.441z"/>
	<path fill-rule="evenodd" clip-rule="evenodd" fill="#F3F3F3" d="M356.755,168.54c-0.152,0.415-0.479,0.583-0.824,0.676
		c-0.271,0.074-0.717,0.167-0.732-0.241c-0.043-1.158-0.878-1.209-1.695-1.393c-0.459-0.103-0.58-0.483-0.144-0.753
		c0.774-0.478,1.36,0.118,1.971,0.471C355.888,167.621,356.572,167.811,356.755,168.54z"/>
	<path fill-rule="evenodd" clip-rule="evenodd" fill="#DFDFDF" d="M355.431,163.958c-0.862,0.196-1.612,0.367-2.628,0.598
		c0.464-1.13,0.829-2.021,1.284-3.132C354.61,162.41,355.011,163.167,355.431,163.958z"/>
	<path fill-rule="evenodd" clip-rule="evenodd" fill="#DBDBDB" d="M196.261,128.946c0.703,1.463,0.69,2.699-0.046,4.448
		C195.468,132.086,195.474,131.534,196.261,128.946z"/>
	<path fill-rule="evenodd" clip-rule="evenodd" fill="#E6E6E6" d="M205.906,155.854c-0.137-1.214,1.2-1.596,1.326-2.67
		c0.059-0.506,0.567-0.235,0.807,0.065c0.231,0.291,0.892,0.801,0.377,0.948C207.374,154.496,207.3,156.009,205.906,155.854z"/>
	<path fill-rule="evenodd" clip-rule="evenodd" fill="#E3E3E3" d="M423.714,145.623c0.1-1.94,1.184-2.605,2.779-2.877
		C425.915,144.007,425.262,145.079,423.714,145.623z"/>
	<path fill-rule="evenodd" clip-rule="evenodd" fill="#E3E3E3" d="M234.326,156.425c-1.262,0.276-2.398,0.253-2.555,1.686
		c-0.045,0.412-0.556,0.733-1.023,0.508c-0.7-0.339-0.008-0.927,0.093-1.018C231.716,156.815,232.243,155.067,234.326,156.425z"/>
	<path fill-rule="evenodd" clip-rule="evenodd" fill="#EEEEEE" d="M103.109,134.574c-1.521-0.157-3.383-0.054-2.401-2.546
		C101.922,132.452,101.916,134.077,103.109,134.574z"/>
	<path fill-rule="evenodd" clip-rule="evenodd" fill="#E8E8E8" d="M362.753,158.732c0.479-0.773,0.68-1.178,0.957-1.521
		c0.309-0.385-0.341-1.327,0.546-1.225c0.555,0.063,0.849,0.801,0.928,1.429c0.114,0.893-0.663,0.651-1.101,0.835
		C363.813,158.364,363.531,158.452,362.753,158.732z"/>
	<path fill-rule="evenodd" clip-rule="evenodd" fill="#E7E7E7" d="M456.285,149.314c-0.432,0.812,1.947,0.77,1.094,2.033
		c-0.467,0.692-1.206,0.2-1.58-0.144C454.766,150.256,456.433,149.782,456.285,149.314z"/>
	<path fill-rule="evenodd" clip-rule="evenodd" fill="#EEEEEE" d="M488.392,144.762c-0.147-0.038-0.558-0.143-0.965-0.253
		c-0.489-0.133-0.775-0.4-0.479-0.919c0.27-0.47,0.824-0.562,1.029-0.147c0.414,0.838,0.657,0.896,1.104,0.06
		c0.152-0.286,0.538-0.394,0.748-0.097c0.148,0.211,0.197,0.61,0.102,0.85C489.71,144.802,489.167,144.778,488.392,144.762z"/>
	<path fill-rule="evenodd" clip-rule="evenodd" fill="#E0E0E0" d="M292.026,167.444c1.986,0.126,2.428,1.756,3.412,2.784
		C293.324,170.52,293.207,168.512,292.026,167.444z"/>
	<path fill-rule="evenodd" clip-rule="evenodd" fill="#E0E0E0" d="M129.437,157.475c0.407,0.401,0.664,1.137,0.841,1.862
		c0.082,0.336-0.361,0.472-0.674,0.396c-0.805-0.193-1.202-0.813-1.234-1.565C128.355,157.834,128.559,157.293,129.437,157.475z"/>
	<path fill-rule="evenodd" clip-rule="evenodd" fill="#DADADA" d="M337.275,168.193c0.497,0.966,1.715,0.968,2.303,1.776
		c0.081,0.111-0.02,0.512-0.029,0.512c-0.91-0.024-1.564-0.814-2.557-0.78c-0.413,0.014-0.419-0.639-0.099-1.05
		C337.015,168.494,336.92,168.156,337.275,168.193z"/>
	<path fill-rule="evenodd" clip-rule="evenodd" fill="#E1E1E1" d="M128.457,153.027c0.235-0.022,0.418-0.088,0.574-0.048
		c0.872,0.227,1.847,0.341,2.034,1.492c0.06,0.37-0.301,0.41-0.477,0.355C129.661,154.539,128.569,154.405,128.457,153.027z"/>
	<path fill-rule="evenodd" clip-rule="evenodd" fill="#E6E6E6" d="M512.84,170.65c-0.813-0.358-1.605-0.779-2.446-1.056
		c-0.806-0.265-0.491-0.935-0.664-1.429c-0.129-0.373,0.136-0.358,0.379-0.404c0.846-0.158,0.584,0.518,0.73,0.918
		C511.2,169.668,512.478,169.582,512.84,170.65z"/>
	<path fill-rule="evenodd" clip-rule="evenodd" fill="#C4C4C4" d="M430.822,126.838c-0.632-0.114-1.047-0.186-1.46-0.266
		c-0.373-0.072-0.788-0.179-0.472-0.672c0.18-0.279,0.463-0.542,0.909-0.296c0.302,0.166,0.325,0.899,0.943,0.464
		c0.296-0.208,0.515-0.812,1.012-0.339c0.141,0.134,0.223,0.592,0.176,0.618C431.517,126.573,431.07,126.734,430.822,126.838z"/>
	<path fill-rule="evenodd" clip-rule="evenodd" fill="#F1F1F1" d="M364.026,142.851c-0.179,1.597,1.461,2.409,1.26,3.976
		C364.013,145.792,362.714,144.857,364.026,142.851z"/>
	<path fill-rule="evenodd" clip-rule="evenodd" fill="#E1E1E1" d="M374.579,135.512c0.271,0.979,1.436,1.119,1.671,2.027
		c-0.976,0.387-1.772-0.397-2.679-0.256C373.566,136.472,374.615,136.357,374.579,135.512z"/>
	<path fill-rule="evenodd" clip-rule="evenodd" fill="#F8F8F8" d="M25.775,154.721c0.157,1.749,0.477,3.508-0.227,5.181
		c-0.489-0.907-0.35-1.786-0.154-2.684C25.574,156.397,25.652,155.555,25.775,154.721z"/>
	<path fill-rule="evenodd" clip-rule="evenodd" fill="#DADADA" d="M71.013,130.271c-0.083,0.471-0.526,0.543-0.688,0.386
		c-0.618-0.599-1.77-0.473-2.048-1.431c-0.114-0.393,0.584-0.748,0.715-0.657C69.716,129.074,70.357,129.698,71.013,130.271z"/>
	<path fill-rule="evenodd" clip-rule="evenodd" fill="#E5E5E5" d="M430.5,110.698c0.748-0.33,1.462-0.464,1.486,0.67
		c0.014,0.617,0.6,1.096,0.306,1.851c-0.982-0.625-1.375-1.593-1.752-2.571C430.539,110.65,430.5,110.698,430.5,110.698z"/>
	<path fill-rule="evenodd" clip-rule="evenodd" fill="#DDDDDD" d="M13.354,152.22c-0.798,0.384-1.515,0.589-1.93-0.426
		c-0.121-0.294-0.362-0.648,0.036-0.736C12.357,150.861,12.718,151.772,13.354,152.22z"/>
	<path fill-rule="evenodd" clip-rule="evenodd" fill="#E7E7E7" d="M174.445,167.458c-1.085-0.125-1.919,0.489-2.396-0.557
		c-0.139-0.303-0.177-0.514,0.233-0.684C173.31,165.792,173.655,166.577,174.445,167.458z"/>
	<path fill-rule="evenodd" clip-rule="evenodd" fill="#E9E9E9" d="M373.135,140.044c0.421,0.434,0.504,1.047,0.613,1.63
		c0.066,0.354,0.058,0.886-0.443,0.754c-0.738-0.194-0.73-1.052-1.001-1.621C372.112,140.402,372.665,140.271,373.135,140.044z"/>
	<path fill-rule="evenodd" clip-rule="evenodd" fill="#DADADA" d="M135.204,147.835c-0.545-0.396-1.675-0.021-1.57-1.146
		c0.037-0.398,0.363-0.847,0.625-0.769C135.131,146.181,134.836,147.178,135.204,147.835z"/>
	<path fill-rule="evenodd" clip-rule="evenodd" fill="#C0C0C0" d="M416.01,157.056c0.174,0.855,0.046,1.609-0.341,2.278
		c-0.318,0.55-0.891,0.479-1.229,0.11c-0.39-0.425,0.115-0.583,0.433-0.706C415.634,158.445,415.639,157.65,416.01,157.056z"/>
	<path fill-rule="evenodd" clip-rule="evenodd" fill="#BFBFBF" d="M95.932,156.128c0.41-1.05,0.236-1.958,1.192-2.257
		c0.117-0.036,0.513,0.309,0.501,0.453C97.554,155.15,96.982,155.608,95.932,156.128z"/>
	<path fill-rule="evenodd" clip-rule="evenodd" fill="#DFDFDF" d="M490.278,130.95c-0.133,0-0.312,0.037-0.333-0.005
		c-0.369-0.728-1.026-1.326-1.042-2.202c-0.001-0.09,0.486-0.325,0.578-0.259C490.33,129.101,490.35,130.009,490.278,130.95z"/>
	<path fill-rule="evenodd" clip-rule="evenodd" fill="#E7E7E7" d="M353.575,159.302c0.123,0.788,0.582,1.587-0.606,1.799
		c-0.275,0.05-0.701,0.223-0.777-0.18C351.995,159.879,352.914,159.749,353.575,159.302z"/>
	<path fill-rule="evenodd" clip-rule="evenodd" fill="#E9E9E9" d="M466.934,147.328c0.149,0.213,0.424,0.709,0.193,0.646
		c-0.914-0.254-2.046,0.044-2.879-0.987c0.86-0.043,1.565-0.077,2.27-0.112C466.741,146.949,466.79,147.183,466.934,147.328z"/>
	<path fill-rule="evenodd" clip-rule="evenodd" fill="#D1D1D1" d="M6.369,159.835c-0.861,0.243-1.416-0.075-1.781-0.738
		c-0.159-0.289,0.084-0.754,0.31-0.741C5.707,158.404,5.986,159.101,6.369,159.835z"/>
	<path fill-rule="evenodd" clip-rule="evenodd" fill="#ADADAD" d="M195.438,121.684c0.836,0.78,0.882,1.607,0.308,2.497
		C194.886,123.435,195.377,122.52,195.438,121.684z"/>
	<path fill-rule="evenodd" clip-rule="evenodd" fill="#D1D1D1" d="M304.694,153.292c-0.006,1.175,0.406,2.142-0.498,3.199
		C303.848,155.26,303.896,154.356,304.694,153.292z"/>
	<path fill-rule="evenodd" clip-rule="evenodd" fill="#CACACA" d="M532.443,170.346c-0.651-0.845-0.651-0.845-0.5-2.614
		C532.715,168.613,532.715,168.613,532.443,170.346z"/>
	<path fill-rule="evenodd" clip-rule="evenodd" fill="#F0F0F0" d="M258.259,161.226c-0.831-0.095-1.52-0.033-1.525-0.925
		c-0.001-0.282-0.01-0.724,0.396-0.681C257.971,159.708,257.983,160.48,258.259,161.226z"/>
	<path fill-rule="evenodd" clip-rule="evenodd" fill="#8C8C8C" d="M466.934,147.328c-0.139-0.151-0.277-0.303-0.416-0.454
		c-0.068-0.532-0.243-1.102,0.404-1.423c0.252-0.125,0.494-0.042,0.613,0.2C467.908,146.405,467.33,146.838,466.934,147.328z"/>
	<path fill-rule="evenodd" clip-rule="evenodd" fill="#F0F0F0" d="M71.92,125.079c-1.61,1.05-2.026,0.639-1.669-0.971
		C70.785,124.419,71.258,124.693,71.92,125.079z"/>
	<path fill-rule="evenodd" clip-rule="evenodd" fill="#B8B8B8" d="M100.987,146.954c-0.232,0.017-0.465,0.032-0.697,0.048
		c-0.085-1.134,0.54-1.9,1.333-2.811C102.151,145.455,100.436,145.918,100.987,146.954z"/>
	<path fill-rule="evenodd" clip-rule="evenodd" fill="#D5D5D5" d="M136.179,164.232c0.84-0.267,0.793-1.342,1.694-1.25
		c0.195,0.021,0.544,0.774,0.47,0.853C137.832,164.368,137.208,164.73,136.179,164.232z"/>
	<path fill-rule="evenodd" clip-rule="evenodd" fill="#FDFDFD" d="M520.979,152.697c0.204,1.246,0.274,2.156-0.12,3.542
		C520.292,154.787,520.554,153.899,520.979,152.697z"/>
	<path fill-rule="evenodd" clip-rule="evenodd" fill="#C3C3C3" d="M208.202,160.251c-0.396,0.769,0.899,1.14-0.038,1.835
		c-0.127,0.095-0.495,0.103-0.496,0.096C207.537,161.574,207.152,160.919,208.202,160.251z"/>
	<path fill-rule="evenodd" clip-rule="evenodd" fill="#D0D0D0" d="M265.411,154.264c-0.871,0.13-1.534,0.188-1.953-0.508
		c-0.063-0.104,0.01-0.428,0.069-0.442C264.288,153.134,264.714,153.681,265.411,154.264z"/>
	<path fill-rule="evenodd" clip-rule="evenodd" fill="#B6B6B6" d="M484.377,144.804c0.391-0.784,0.389-1.569,1.283-1.669
		C486.01,144.122,485.473,144.503,484.377,144.804z"/>
	<path fill-rule="evenodd" clip-rule="evenodd" fill="#D4D4D4" d="M124.703,155.839c-0.414-0.046-0.712-0.243-0.764-0.652
		c-0.049-0.386,0.04-0.717,0.557-0.718c0.489-0.001,0.625,0.286,0.62,0.692C125.113,155.46,125.101,155.778,124.703,155.839z"/>
	<path fill-rule="evenodd" clip-rule="evenodd" fill="#A4A4A4" d="M104.646,139.181c1.091-0.054,1.377-1.22,2.061-0.912
		c0.492,0.223,0.533,1.106-0.512,0.937C105.758,139.134,105.555,139.807,104.646,139.181z"/>
	<path fill-rule="evenodd" clip-rule="evenodd" fill="#A3A3A3" d="M338.02,166.564c-0.794-0.443-0.893-1.157-1.185-1.748
		C337.644,165.035,338.441,165.257,338.02,166.564z"/>
	<path fill-rule="evenodd" clip-rule="evenodd" fill="#808080" d="M304.286,150.331c-0.79-0.865-0.715-1.42-0.484-2.062
		C304.872,148.691,304.243,149.402,304.286,150.331z"/>
	<path fill-rule="evenodd" clip-rule="evenodd" fill="#BEBEBE" d="M467.875,142.911c0.336,0.522,0.698,1.027,0.41,1.698
		C467.234,144.075,467.234,144.075,467.875,142.911z"/>
	<path fill-rule="evenodd" clip-rule="evenodd" fill="#BDBDBD" d="M68.582,144.404c-0.377-0.004-0.699-0.118-0.587-0.503
		c0.072-0.246,0.344-0.572,0.567-0.607c0.43-0.067,0.638,0.329,0.653,0.7C69.232,144.431,68.813,144.337,68.582,144.404z"/>
	<path fill-rule="evenodd" clip-rule="evenodd" fill="#555555" d="M51.617,106.096c-0.635,0.004-1.269,0.009-1.904,0.014
		C50.339,104.903,50.975,105.023,51.617,106.096z"/>
	<path fill-rule="evenodd" clip-rule="evenodd" fill="#BCBCBC" d="M170.946,162.588c0.063,0.795,0.826,1.184,0.049,1.716
		c-0.156,0.106-0.56,0.125-0.638,0.022C169.858,163.669,170.457,163.332,170.946,162.588z"/>
</g>
</svg>
