<?xml version="1.0" encoding="utf-8"?>
<!-- Generator: Adobe Illustrator 16.0.0, SVG Export Plug-In . SVG Version: 6.00 Build 0)  -->
<!DOCTYPE svg PUBLIC "-//W3C//DTD SVG 1.1//EN" "http://www.w3.org/Graphics/SVG/1.1/DTD/svg11.dtd">
<svg version="1.1" id="Layer_1" xmlns="http://www.w3.org/2000/svg" xmlns:xlink="http://www.w3.org/1999/xlink" x="0px" y="0px"
	 width="320px" height="432px" viewBox="0 0 320 432" enable-background="new 0 0 320 432" xml:space="preserve">
<g>
	<path d="M210.103,47.014c7.284,0.054,14.567,0.197,21.852,0.143c9.854-0.076,16.167,5.78,16.448,14.854
		c0.379,12.205-0.008,24.428,0.146,36.64c0.06,4.733-4.838,4.431-7.37,5.879c-3.135,1.792-3.405-2.338-4.137-4.078
		c-2.729-6.495-6.153-12.33-13.766-14.922c-1.382-0.47-1.305-1.232-1.459-2.185c-0.937-5.784-3.441-7.823-9.535-7.828
		c-4.444-0.004-8.889-0.028-13.332,0.006c-3.853,0.031-7.445,0.43-10.092-3.502c-1.791-2.663-10.666-2.08-13.144,0.579
		c-2.376,2.551-5.13,2.96-8.471,2.954c-30.931-0.065-61.86-0.041-92.79-0.038c-5.849,0.001-9.247,2.632-9.355,8.061
		c-0.225,11.233-0.299,22.479,0.066,33.707c0.118,3.62,2.24,6.233,7.337,6.201c28.262-0.177,56.525-0.033,84.79-0.151
		c3.491-0.016,5.473,0.472,6.251,4.078c0.979,4.535,3.129,8.795,6.452,13.309c-2.525,0.11-4.364,0.259-6.202,0.26
		c-33.419,0.014-66.838,0.036-100.257-0.032c-3.109-0.005-5.148-0.158-5.098,3.859c0.049,3.761,1.605,4.05,4.958,4.042
		c35.552-0.088,71.104-0.047,106.655-0.042c1.95,0,3.9,0,6.592,0c-4.62,5.914-9.125,11.314-12.315,17.455
		c-1.071,2.06-3.129,1.038-4.703,1.065c-10.251,0.165-11.593,1.174-11.325,10.526c0.175,6.097-0.837,12.199,0.725,18.33
		c0.765,3,2.178,3.703,5.016,3.447c0.527-0.047,1.064-0.008,1.599-0.006c3.199,0.012,6.709-0.732,9.516,0.234
		c3.177,1.095,0.334,4.833,1.978,7.345c0.979,1.495,2.267,3.509,2.31,6.103c-4.634,0-9.188-0.063-13.74,0.019
		c-4.536,0.081-7.38,2.599-7.443,6.714c-0.101,6.677-0.224,13.36,0.048,20.028c0.162,3.969,2.338,6.637,7.281,6.483
		c3.196-0.098,6.397-0.018,9.599-0.018c6.687,0,9.488-2.402,9.682-8.64c0.154-5.044,0.03-10.096,0.03-15.398
		c3.767,1.938,3.951,7.164,8.97,7.637c0.966,0.091,0.593,1.357,0.614,2.106c0.052,1.628-0.066,3.262,0.031,4.884
		c0.454,7.49,2.625,9.662,10.457,9.312c4.441-0.199,7.074,0.372,7.365,5.115c0.108,1.747-0.093,3.744,1.195,5.573
		c0.967,1.371-0.366,2.223-2.189,2.137c-2.127-0.101-4.265-0.025-6.396-0.023c-7.181,0.012-9.371,1.966-9.376,8.404
		c-0.011,9.935,0.07,19.869-0.022,29.802c-0.104,11.033-0.249,21.994-1.789,33.05c-2.185,15.69,1.054,31.045,9.573,46.014
		c-2.609,0-4.451,0-6.292,0c-44.084,0-88.17-0.177-132.252,0.125c-11.107,0.076-17.49-7.421-17.49-16.129
		c0.004-99.179-0.007-198.358,0.019-297.538c0.002-9.834,7.044-15.895,17.075-15.861c48.883,0.161,97.769,0.075,146.651,0.066
		c1.95-0.001,3.9-0.104,5.852-0.159C207.963,46.358,209.033,46.359,210.103,47.014z"/>
	<path d="M194.038,150.739c11.396-2.042,23.077-2.634,34.288-0.571c11.067,2.039,21.298,6.42,30.41,13.421
		c9.982,7.668,16.042,17.371,19.692,28.053c2.819,8.249,3.765,17.238,3.503,26.156c-0.308,10.484-1.793,20.753-3.745,31.099
		c-1.748,9.262-5.328,18.031-7.312,27.222c-0.964,4.469-3.524,9.362-4.45,13.882c-1.357,6.627-2.819,13.344-3.712,20.112
		c-1.018,7.708,0.39,15.299,0.101,22.935c-0.427,11.269-1.917,22.352-8.125,32.393c-3.845,6.22-8.44,11.843-15.85,14.919
		c-0.862,0.99-2.087,1.007-3.303,1.03c-1.684-0.27-2.281,1.04-3.216,1.863c-8.479,1.349-15.94-1.415-23.246-4.816
		c-1.069-1.313-3.25-0.592-4.282-1.971c-6.086-7.482-11.707-14.716-13.479-24.688c-1.87-10.533-1.72-20.791-0.487-31.104
		c0.563-4.731,3.09-9.36,5.263-13.816c4.736-9.715,10.637-19.023,14.441-29.017c2.232-5.861,3.58-12.724,0.291-19.12
		c-1.183-2.301,0.569-4.568-0.613-7.19c-4.74-10.502-12.763-18.549-21.606-26.083c-15.459-13.17-19.916-29.468-17.473-48.234
		c0.914-7.024,4.699-12.559,8.299-18.19c2.048-3.204,6.356-5.014,10.361-6.454C190.947,151.456,193.023,152.133,194.038,150.739z"/>
	<path d="M189.811,140.906c-6.34,3.46-12.463,1.285-16.472-4.915c-7.418-11.472-9.262-23.917-7.843-36.751
		c1.001-9.041,5.791-16.94,12.995-23.195c1.719-1.491,6.024-1.463,7.887,0.159c12.12,10.558,16.237,23.939,14.977,38.88
		c-0.535,6.333-0.905,12.767-4.161,18.601c-1.097,1.968-1.847,4.224-4.279,5.309C192.198,140.064,190.647,139.998,189.811,140.906z"
		/>
	<path d="M233.996,111.882c0.722,8.616-0.124,16.857-6.152,24.025c-3.269,3.887-9.063,3.975-12.291,0.099
		c-9.409-11.296-9.149-23.615-4.403-36.247c2.216-5.893,5.708-7.532,11.113-7.393c4.322,0.111,6.473,3.003,7.653,5.531
		C231.978,102.315,234.898,106.724,233.996,111.882z"/>
	<path fill="#010101" d="M252.858,107.657c2.35,0.631,3.17,2.616,3.866,4.314c3.833,9.337,4.109,18.576-1.861,27.368
		c-3.227,4.752-7.512,4.456-10.94-0.212c-5.405-7.356-4.898-25.94,3.515-31.354C249.213,106.539,251.023,106.618,252.858,107.657z"
		/>
	<path fill="#010101" d="M80.306,111.841c2.309-1.823,1.574-4.082,1.523-6.044c-0.069-2.607,0.099-4.078,3.826-4.039
		c3.764,0.04,4.028,1.517,3.613,4.14c-0.639,4.028,0.355,8.365-4.836,11.039c-4.846,2.494-10.756,1.249-11.839-3.684
		c-1.794-8.172-1.714-16.501-0.269-24.714c0.729-4.143,4.347-6.508,8.685-6.009c3.875,0.444,7.594,2.3,7.896,6.84
		c0.117,1.782,0.259,3.565,0.477,5.338c0.326,2.657-1.689,2.442-3.433,2.273c-1.612-0.155-4.074,1.142-4.14-2.113
		c-0.037-1.855,1.415-5.27-1.456-5.25c-2.345,0.017-1.229,3.535-1.317,5.491c-0.184,4.062-0.108,8.136-0.025,12.203
		C79.043,108.82,78.629,110.541,80.306,111.841z"/>
	<path fill="#020202" d="M91.547,103.273c0.177-2.354,0.126-5.304,0.682-8.154c0.76-3.89,3.172-6.179,7.953-5.968
		c4.719,0.207,6.984,2.739,7.53,6.535c0.764,5.311,0.623,10.696,0.015,16.023c-0.482,4.238-3.57,6.58-7.996,6.722
		c-4.42,0.142-7.068-2.42-7.696-6.351C91.6,109.372,91.708,106.589,91.547,103.273z"/>
	<path fill="#020202" d="M273.126,126.241c7.215,7.05,4.033,21.512-3.259,26.32c-1.702,1.122-3.62,1.103-5.417-1.021
		c-5.306-6.27-3.766-19.598,3.257-25.198C269.486,125.106,271.296,125.183,273.126,126.241z"/>
	<path fill="#040404" d="M278.536,168.028c-1.982-5.211-3.879-10.297-1.441-16.001c1.027-2.402,3.671-5.249,4.487-5.01
		c2.562,0.746,5.113,2.157,5.764,5.476c1.197,6.125,1.469,11.828-3.763,16.621C281.321,171.013,279.932,169.508,278.536,168.028z"/>
	<path fill="#040404" d="M113.033,89.2c-1.292-0.335-3.374,0.958-3.581-1.597c-0.179-2.204,1.241-3.835,2.775-4.893
		c1.187-0.817,3.237-0.802,4.855,0.444c3.331,2.563,2.835,5.636,1.486,8.728c-0.833,1.909-2.154,3.641-3.372,5.642
		c1.41,0.943,4.765-0.334,4.063,2.894c-0.581,2.672-2.817,1.394-4.23,1.399c-1.779,0.006-4.204,1.099-5.298-0.736
		c-0.967-1.623,0.546-3.253,1.309-4.902c0.937-2.029,3.208-3.473,3.098-5.923C114.574,89.197,114.62,88.481,113.033,89.2z"/>
	<path fill="#888888" d="M252.858,107.657c-1.807,0.039-3.613,0.077-5.422,0.116C249.17,104.838,250.969,104.48,252.858,107.657z"/>
	<path fill="#787878" d="M273.126,126.241c-1.808,0.034-3.612,0.067-5.419,0.1C269.442,123.095,271.254,123.27,273.126,126.241z"/>
	<path fill="#DDDDDD" d="M278.536,168.028c1.55,0.878,3.18,1.445,5.047,1.086c0.064,1.291-0.461,2.154-2.009,2.097
		C279.382,171.128,278.937,169.58,278.536,168.028z"/>
	<path fill="#CCCCCC" d="M194.038,150.739c-0.266,2.854-2.286,2.286-4.249,1.832C190.239,150.076,192.466,151.046,194.038,150.739z"
		/>
	<path fill="#B6B6B6" d="M204.793,376.467c1.838-0.092,4.002-0.78,4.282,1.971C207.24,378.525,205.231,378.927,204.793,376.467z"/>
	<path fill="#8D8D8D" d="M234.579,380.554c1.421-0.063,2.841-0.129,4.261-0.194c-0.146,2.895-2.414,1.882-4.13,1.886
		C233.996,381.725,234.007,381.158,234.579,380.554z"/>
	<path fill="#EEEEEE" d="M113.033,89.2c0.921-0.721-0.369-3.228,1.774-2.509c1.034,0.346,0.924,2.54-0.669,3.564
		C113.769,89.905,113.401,89.551,113.033,89.2z"/>
	<path fill="#262626" d="M189.811,140.906c0.173-1.811,1.593-1.923,3.104-1.91C192.977,141.126,191.527,141.197,189.811,140.906z"/>
	<path fill="#F7F7F7" d="M210.103,47.014c-1.069,0-2.142-0.001-3.212-0.001c0.172-0.969,0.526-1.785,1.85-1.638
		C209.779,45.491,209.949,46.257,210.103,47.014z"/>
	<path fill="#BCBCBC" d="M234.579,380.554c0.044,0.564,0.087,1.128,0.131,1.692c-0.796,0.336-1.592,0.671-2.388,1.008
		C232.943,382.261,231.564,379.867,234.579,380.554z"/>
	<path fill="#FEFEFE" d="M74.631,230.01c0-3.092-0.033-6.184,0.008-9.275c0.068-5.093,2.622-7.371,8.295-7.42
		c3.375-0.027,6.787,0.285,10.115-0.075c4.633-0.501,7.522,2.153,7.784,5.262c0.646,7.659,1.482,15.436-0.538,23.1
		c-0.932,3.537-2.841,5.405-7.206,5.01c-3.87-0.353-7.819-0.247-11.712-0.031c-5.083,0.28-6.787-2.145-6.752-6.318
		C74.654,236.844,74.631,233.427,74.631,230.01z"/>
	<path fill="#FEFEFE" d="M137.564,230.646c0,3.418,0.131,6.842-0.037,10.251c-0.175,3.582-1.707,5.978-6.341,5.686
		c-3.713-0.234-7.457-0.047-11.187-0.047c-5.808-0.001-8.71-2.199-9.021-7.727c-0.346-6.166-0.273-12.369-0.019-18.543
		c0.199-4.837,2.951-6.916,8.339-6.953c3.729-0.024,7.462-0.069,11.188,0.013c4.615,0.1,6.823,2.602,7.035,6.583
		C137.714,223.48,137.564,227.068,137.564,230.646z"/>
	<path fill="#FEFEFE" d="M74.631,275.116c1.185-3.979-2.447-9.485,2.151-13.602c5.69-5.095,12.926-1.899,19.339-1.902
		c4.041-0.001,5.398,4.361,5.142,8.067c-0.457,6.562,1.021,13.16-0.887,19.718c-1.125,3.868-3.203,5.53-7.642,5.134
		c-3.515-0.317-7.09-0.05-10.639-0.068c-4.742-0.027-7.323-2.352-7.447-6.825C74.559,282.387,74.631,279.136,74.631,275.116z"/>
	<path fill="#FEFEFE" d="M148.231,275.063c1.076-4.006-2.063-9.287,2.1-13.693c0.55-0.584,0.944-1.841,1.425-1.847
		c6.467-0.084,12.97-1.149,19.392,0.559c2.484,0.661,3.265,3.09,3.318,4.349c0.336,7.699,1.457,15.454-0.572,23.124
		c-0.938,3.55-2.887,5.421-7.236,4.979c-3.337-0.34-6.746-0.063-10.123-0.068c-5.586-0.007-8.263-2.527-8.299-7.844
		C148.214,281.692,148.231,278.76,148.231,275.063z"/>
	<path fill="#FEFEFE" d="M101.3,321.093c-0.142,4.143,0.132,8.252-0.936,12.409c-0.948,3.69-3.031,4.982-6.825,4.909
		c-3.725-0.07-7.45-0.006-11.174-0.018c-5.177-0.016-7.631-2.091-7.707-6.823c-0.106-6.499-0.096-13-0.004-19.5
		c0.065-4.704,2.655-6.883,7.892-6.898c3.016-0.011,6.031-0.002,9.046-0.002c6.669,0,9.411,2.399,9.688,8.61
		C101.388,316.214,101.298,318.656,101.3,321.093z"/>
	<path fill="#FEFEFE" d="M137.563,322.385c-1.218,3.979,2.274,9.281-2.026,13.681c-0.436,0.445-0.517,1.39-0.992,1.561
		c-4.757,1.704-9.768,0.153-14.591,0.815c-6.482,0.89-8.448-3.017-8.714-7.427c-0.424-7.019-1.45-14.142,0.711-21.114
		c0.971-3.131,2.655-5.174,6.84-4.803c3.866,0.344,7.798,0.126,11.698,0.059c4.667-0.08,6.628,2.54,7.001,6.229
		C137.833,314.767,137.563,318.202,137.563,322.385z"/>
	<path fill="#FEFEFE" d="M174.897,322.167c0,2.766-0.208,5.548,0.063,8.29c0.243,2.473-0.834,5.151-2.362,6.071
		c-6.132,3.687-13.297,2.154-19.849,1.33c-3.974-0.497-4.752-4.698-4.58-8.479c0.246-5.358,0.051-10.732,0.065-16.1
		c0.017-5.605,2.651-8.104,8.523-8.109c2.84-0.002,5.68,0,8.521,0c6.623,0,9.358,2.438,9.603,8.703
		C174.986,316.635,174.897,319.402,174.897,322.167z"/>
	<path fill="#FEFEFE" d="M137.564,275.79c0,3.416,0.388,6.879-0.106,10.232c-0.518,3.506-2.214,6.556-7.058,6.457
		c-3.372-0.069-6.744-0.01-10.117-0.015c-5.863-0.007-9.098-2.603-9.326-8.078c-0.252-6.009-0.438-12.06,0.068-18.04
		c0.368-4.35,2.607-7.673,8.117-7.166c3.516,0.322,7.094,0.051,10.645,0.062c5.443,0.019,7.68,2.093,7.769,7.278
		C137.607,269.609,137.564,272.701,137.564,275.79z"/>
	<path fill="#FEFEFE" d="M137.564,184.359c0,3.086-0.21,6.185,0.048,9.252c0.402,4.757-2.01,6.345-6.895,6.063
		c-3.884-0.225-7.846-0.407-11.682,0.044c-5.022,0.592-7.644-1.842-7.834-5.626c-0.354-7.039-0.821-14.095,0.365-21.205
		c0.758-4.532,4.106-4.648,7.417-5.502c0.165-0.042,0.354-0.004,0.53-0.005C137.902,167.328,137.945,165.929,137.564,184.359z"/>
	<path fill="#FEFEFE" d="M74.631,184.48c0-3.085,0.125-6.175-0.029-9.251c-0.245-4.868,1.166-7.269,8.384-7.815
		c2.815-0.214,5.705,0.24,8.492-0.093c5.478-0.656,8.933,2.432,9.354,6.282c0.813,7.445,1.529,15.077-0.593,22.545
		c-0.657,2.312-2.104,3.526-4.823,3.495c-5.314-0.059-10.629-0.032-15.944-0.011c-3.278,0.014-4.868-1.439-4.846-4.441
		C74.651,191.621,74.631,188.051,74.631,184.48z"/>
	<path fill="#FEFEFE" d="M100.267,113.742c-1.789-3.144-1.217-5.094-1.26-6.968c-0.094-4.148-0.029-8.302-0.029-12.453
		c0.431-0.004,0.859-0.008,1.289-0.013C100.267,100.306,100.267,106.303,100.267,113.742z"/>
</g>
</svg>
